<svg width="400" height="400" viewBox="0 0 400 400" fill="none" xmlns="http://www.w3.org/2000/svg">
<rect width="400" height="400" fill="#1E1E1E"/>
<rect width="400" height="400" fill="white"/>
<path d="M138.529 293.5C138.129 295.1 139.029 296.5 139.529 297C142.863 299.5 150.129 304.3 152.529 303.5C155.529 302.5 157.029 299.5 156.529 297.5C156.029 295.5 153.529 293 150.529 292.5C147.529 292 143.529 290 142.029 290C140.529 290 139.029 291.5 138.529 293.5Z" fill="white" stroke="black" stroke-width="2" stroke-linecap="round" stroke-linejoin="round"/>
<path d="M134.029 300.5C132.829 299.7 133.196 298.833 133.529 298.5C133.863 297.667 134.629 295.8 135.029 295C135.529 294 135.529 294.5 137.029 294.5C138.529 294.5 155.529 303 156.529 303.5C157.529 304 158.029 305 158.029 306C158.029 307 156.529 310 154.529 310C152.529 310 135.529 301.5 134.029 300.5Z" fill="white" stroke="black" stroke-width="2" stroke-linecap="round" stroke-linejoin="round"/>
<path d="M242.029 239.5C242.696 242.667 244.229 249.8 245.029 253C246.029 257 245.029 261.5 243.529 264.5C242.029 267.5 231.029 284 208.529 305" stroke="black" stroke-width="2" stroke-linecap="round" stroke-linejoin="round"/>
<path d="M201.529 307L203.529 309.5L211.529 314.5C213.696 314.333 218.029 313.3 218.029 310.5C218.029 307 215.029 307 212.029 306.5C209.029 306 206.529 304 203.529 304C201.129 304 201.196 306 201.529 307Z" fill="white" stroke="black" stroke-width="2" stroke-linecap="round" stroke-linejoin="round"/>
<path d="M196.529 311.5L199.029 306.5C203.863 308 214.529 311.9 218.529 315.5L219.529 316.5C218.863 318.167 217.329 321.4 216.529 321C215.529 320.5 199.029 314 197.529 313C196.329 312.2 196.363 311.667 196.529 311.5Z" fill="white" stroke="black" stroke-width="2" stroke-linecap="round" stroke-linejoin="round"/>
<path d="M193.029 216.5C196.229 214.5 199.696 215 201.029 215.5L222.029 222.5C223.696 224.167 226.429 229.2 224.029 236C221.029 244.5 214.529 262 212.029 269C209.529 276 204.529 289 203.029 292.5C201.529 296 200.029 301 199.029 301.5C198.029 302 196.529 301.5 196.529 300C196.529 298.5 198.029 295.5 200.029 289.5C202.029 283.5 206.529 270 209.529 260.5C212.529 251 217.029 234.5 217.529 233.5C218.029 232.5 218.529 229 214.529 227.5C210.529 226 209.529 225.5 204.529 224C199.529 222.5 197.529 224.5 195.529 226.5C193.529 228.5 183.529 258.5 181.529 264C179.529 269.5 172.529 291 172.029 292C171.529 293 169.029 293 168.029 291.5C167.029 290 167.529 288 168.029 286.5C168.529 285 172.029 275 173.029 271.5C174.029 268 178.529 256 181.529 245.5C184.529 235 189.029 221 189.529 220C190.029 219 189.029 219 193.029 216.5Z" fill="#D9D9D9" stroke="black" stroke-width="2" stroke-linecap="round" stroke-linejoin="round"/>
<path d="M188.529 71.5L174.029 72C172.363 71.6667 168.129 70.8 164.529 70C160.029 69 148.029 67 146.029 67C144.029 67 143.029 66 139.029 67C135.029 68 138.029 70 139.029 70C140.029 70 159.529 69 164.529 71.5C168.529 73.5 171.529 73.6667 172.529 73.5C170.029 74 164.129 74.7 160.529 73.5C156.029 72 140.529 74.5 134.529 77C128.529 79.5 122.529 75.5 123.029 75C123.529 74.5 132.029 77 141.029 76.5C150.029 76 160.529 77 169.029 79C177.529 81 189.529 79 191.529 77" stroke="black" stroke-width="2" stroke-linecap="round" stroke-linejoin="round"/>
<path d="M195.029 77C199.029 81 223.529 132.9 223.529 166.5" stroke="black" stroke-width="2" stroke-linecap="round" stroke-linejoin="round"/>
<path d="M191.529 78.5C183.696 82.1667 166.529 91 160.529 97C153.029 104.5 155.529 109 156.029 112.5C156.529 116 165.529 130.5 164.529 138.5" stroke="black" stroke-width="2" stroke-linecap="round" stroke-linejoin="round"/>
<path d="M201.029 76.5C216.529 86.3333 245.529 106 249.029 109C252.029 111 256.029 113.5 258.029 123C260.029 132.5 270.529 167.5 271.529 170.5M205.529 174.5L219.029 176L216.529 171C213.696 169.5 207.129 166.2 203.529 165C199.029 163.5 196.529 162.5 193.529 161.5C190.529 160.5 188.029 154 186.529 152.5C185.029 151 181.529 147.5 172.529 145.5C165.329 143.9 160.863 141.167 159.529 140C158.696 139.667 156.829 139.4 156.029 141C155.029 143 155.029 143 155.529 143.5C156.029 144 156.029 143.5 157.029 144.5C157.829 145.3 166.029 147.833 170.029 149C172.029 149.5 176.429 150.9 178.029 152.5C180.029 154.5 183.029 163 186.529 166.5C189.329 169.3 200.363 173 205.529 174.5ZM227.529 179.5L229.529 175.5H232.029C236.529 177.5 245.829 181.5 247.029 181.5C248.229 181.5 252.863 182.833 255.029 183.5C257.696 183.333 264.029 182.5 268.029 180.5C273.029 178 274.529 179.5 276.529 180.5C278.129 181.3 288.196 184.833 293.029 186.5C293.863 187 295.529 188.2 295.529 189C295.529 190 295.529 191.5 293.029 193C291.029 194.2 289.529 192.5 289.029 191.5L278.029 187C277.029 186.5 274.729 185.5 273.529 185.5C272.029 185.5 265.029 190 258.529 190.5C253.329 190.9 235.696 183.333 227.529 179.5Z" stroke="black" stroke-width="2" stroke-linecap="round" stroke-linejoin="round"/>
<path d="M178.529 166C180.129 166 187.529 167 191.029 167.5C194.029 167.918 200.529 170 207.529 171C213.129 171.8 236.863 180.667 248.029 185C249.029 185 251.429 185.2 253.029 186C255.029 187 262.029 191 263.529 192C265.029 193 266.029 193 266.529 197C270.029 217 252.029 236 251.029 237C250.029 238 248.029 237.5 247.529 236.5C247.129 235.7 243.029 233.833 241.029 233C239.529 232.5 235.929 231.2 233.529 230C230.529 228.5 222.529 225.5 218.029 224C213.529 222.5 207.529 218 202.029 217C197.629 216.2 188.196 214 184.029 213C183.196 212.833 181.029 212.2 179.029 211C176.529 209.5 171.029 209 168.029 208.5C165.029 208 164.529 210 163.529 207C158.529 186.5 172.029 170 174.029 167.5C176.029 165 176.529 166 178.529 166Z" fill="white" stroke="black" stroke-width="2" stroke-linecap="round" stroke-linejoin="round"/>
<path d="M246.029 177.5L243.529 180.5C244.532 180.877 246.586 181.567 246.783 181.315C248.625 186.429 246.78 188.948 244.529 202C242.621 213.066 236.922 225.011 233.941 230.284L230.029 228.5C229.529 231 235.529 235 237.029 235C238.529 235 241.029 233.5 242.529 230.5C244.029 227.5 250.029 214 252.029 208.5C254.029 203 256.529 186.5 254.529 182C252.929 178.4 248.196 177.5 246.029 177.5Z" fill="#D9D9D9"/>
<path d="M233.529 231C233.66 230.777 233.797 230.538 233.941 230.284M246.029 179.5C246.329 180.149 246.578 180.748 246.783 181.315M246.783 181.315C248.625 186.429 246.78 188.948 244.529 202C242.621 213.066 236.922 225.011 233.941 230.284M246.783 181.315C246.586 181.567 244.532 180.877 243.529 180.5L246.029 177.5C248.196 177.5 252.929 178.4 254.529 182C256.529 186.5 254.029 203 252.029 208.5C250.029 214 244.029 227.5 242.529 230.5C241.029 233.5 238.529 235 237.029 235C235.529 235 229.529 231 230.029 228.5L233.941 230.284" stroke="black" stroke-width="2" stroke-linecap="round" stroke-linejoin="round"/>
<path d="M196.529 161C197.529 160.5 201.529 159.5 204.529 162.5C205.897 163.868 206.355 165.084 206.404 166L202.029 164.5C199.529 166.5 196.529 171 195.029 173.5C193.529 176 189.029 184 185.529 192.5C182.729 199.3 183.363 209 184.029 213L187.029 214C185.529 216.5 180.529 216 179.029 214.5C177.529 213 177.029 208 177.029 203.5C177.029 199 179.529 186.5 182.529 181C185.529 175.5 195.529 161.5 196.529 161Z" fill="#D9D9D9"/>
<path d="M184.029 213L187.029 214C185.529 216.5 180.529 216 179.029 214.5C177.529 213 177.029 208 177.029 203.5C177.029 199 179.529 186.5 182.529 181C185.529 175.5 195.529 161.5 196.529 161C197.529 160.5 201.529 159.5 204.529 162.5C205.897 163.868 206.355 165.084 206.404 166L202.029 164.5M184.029 213C183.363 209 182.729 199.3 185.529 192.5C189.029 184 193.529 176 195.029 173.5C196.529 171 199.529 166.5 202.029 164.5M184.029 213L184.529 214M202.029 164.5L203.029 163.5" stroke="black" stroke-width="2" stroke-linecap="round" stroke-linejoin="round"/>
<path d="M218.029 170C216.029 171.2 216.196 173.167 216.529 174L229.029 179C230.196 178.667 232.329 177.4 231.529 175C230.529 172 220.529 168.5 218.029 170Z" stroke="black" stroke-width="2" stroke-linecap="round" stroke-linejoin="round"/>
<path d="M172.029 139C175.029 139 178.529 142 180.029 144C180.363 144.833 180.829 147.2 180.029 148C177.637 146.405 173.912 145.506 171.837 145.005L171.816 145C169.724 147.529 167.887 152.428 165.029 153.5C161.029 155 158.529 154.5 156.029 152C153.529 149.5 159.029 141 160.029 140C160.829 139.2 161.696 139 162.029 139H172.029Z" fill="white"/>
<path d="M174.529 143.5C173.53 143.357 172.653 143.989 171.816 145M171.816 145C169.724 147.529 167.887 152.428 165.029 153.5C161.029 155 158.529 154.5 156.029 152C153.529 149.5 159.029 141 160.029 140C160.829 139.2 161.696 139 162.029 139C164.363 139 169.629 139 172.029 139C175.029 139 178.529 142 180.029 144C180.363 144.833 180.829 147.2 180.029 148C177.629 146.4 173.887 145.5 171.816 145Z" stroke="black" stroke-width="2" stroke-linecap="round" stroke-linejoin="round"/>
<path d="M163.029 37.5C163.029 39.1 167.029 42.1667 169.029 43.5C177.696 40.3333 195.429 33.8 197.029 33C199.029 32 201.029 29 200.029 26C199.029 23 197.529 22 194.529 19C191.529 16 188.029 14 187.529 14C187.029 14 186.529 14 186.029 14.5C170.029 15 168.029 21 167.029 21C164.529 21 164.029 22.5 163.529 25C163.029 27.5 163.029 35.5 163.029 37.5Z" fill="#D9D9D9" stroke="black" stroke-width="2" stroke-linejoin="round"/>
<path d="M165.029 23C166.196 23.6667 168.829 24.9 170.029 24.5C171.529 24 171.029 20.5 171.029 19M180.529 15.5C181.363 17 183.429 20 185.029 20C187.029 20 185.529 14.5 186.029 14.5M182.529 35C181.952 34.8178 181.267 34.5825 180.529 34.3049M180.529 34.3049C177.219 33.0592 172.856 30.9627 172.529 29C172.029 26 174.529 28 175.529 29C176.529 30 178.529 32.6099 180.529 34.3049ZM187.029 33.5C187.367 33.0499 187.77 32.4581 188.184 31.7746M188.184 31.7746C189.607 29.4207 191.149 25.9799 190.529 23.5C189.529 19.5 188.529 23.5 188.529 25.5C188.529 27.1 188.299 30.3497 188.184 31.7746Z" stroke="black" stroke-opacity="0.5" stroke-width="2" stroke-linecap="round" stroke-linejoin="round"/>
<path d="M169.529 45.5C168.363 42.8333 168.229 37.6 177.029 38C185.09 38.3664 192.648 33.4464 196.166 30.3116C196.787 32.8744 198.529 38.4 200.529 40C203.029 42 205.529 45.5 205.029 52C204.529 58.5 204.529 61 204.029 65C203.529 69 199.029 72.5 194.529 73C190.029 73.5 183.529 67 177.029 61C170.529 55 171.529 51 171.529 49C171.529 47.4 170.196 46 169.529 45.5Z" fill="white"/>
<path d="M197.029 29.5C196.777 29.7519 196.489 30.0243 196.166 30.3116M196.166 30.3116C192.648 33.4464 185.09 38.3664 177.029 38C168.229 37.6 168.363 42.8333 169.529 45.5C170.196 46 171.529 47.4 171.529 49C171.529 51 170.529 55 177.029 61C183.529 67 190.029 73.5 194.529 73C199.029 72.5 203.529 69 204.029 65C204.529 61 204.529 58.5 205.029 52C205.529 45.5 203.029 42 200.529 40C198.529 38.4 196.787 32.8744 196.166 30.3116Z" stroke="black" stroke-width="2" stroke-linecap="round" stroke-linejoin="round"/>
<path d="M188.529 41.5C189.529 43 192.229 46.7 195.029 49.5C198.529 53 191.029 58 190.529 57.5M187.029 62.5C187.863 62.1667 190.129 61.5 192.529 61.5" stroke="black" stroke-width="2" stroke-linecap="round" stroke-linejoin="round"/>
<path d="M270.029 174.5C268.829 176.1 270.196 178.167 271.029 179C271.696 178.833 273.329 178.7 274.529 179.5C275.729 180.3 276.544 180.5 276.801 180.5C276.946 181.114 277.029 181.786 277.029 182.5C277.029 186 280.529 190 283.529 191.5C286.529 193 287.529 193 289.529 191.5C291.529 190 294.529 187 292.529 182.5C290.529 178 288.029 179 286.029 177.5C284.029 176 280.529 172.5 276.529 172C272.529 171.5 271.529 172.5 270.029 174.5Z" fill="white"/>
<path d="M273.529 177C274.723 176.602 276.234 178.105 276.801 180.5M276.801 180.5C276.946 181.114 277.029 181.786 277.029 182.5C277.029 186 280.529 190 283.529 191.5C286.529 193 287.529 193 289.529 191.5C291.529 190 294.529 187 292.529 182.5C290.529 178 288.029 179 286.029 177.5C284.029 176 280.529 172.5 276.529 172C272.529 171.5 271.529 172.5 270.029 174.5C268.829 176.1 270.196 178.167 271.029 179C271.696 178.833 273.329 178.7 274.529 179.5C275.729 180.3 276.544 180.5 276.801 180.5Z" stroke="black" stroke-width="2" stroke-linecap="round" stroke-linejoin="round"/>
<path d="M152.029 367.5C153.583 362.061 155.029 356.167 156.029 354C158.196 347.667 163.429 332.5 167.029 322.5C171.529 310 172.529 305.5 177.029 292C181.529 278.5 192.529 248 194.529 242C196.529 236 197.029 231.5 200.529 229C204.029 226.5 210.029 230 210.529 230.5C211.029 231 211.029 236.5 210.529 237.5C210.029 238.5 210.529 239.5 206.529 251C202.529 262.5 190.529 301 188.029 308C185.529 315 173.029 354 170.529 360C168.029 366 163.029 379 161.529 379H155.529C153.929 379 152.529 378 152.029 377.5C149.529 375.5 151.029 371 152.029 367.5Z" fill="black" stroke="black" stroke-width="2" stroke-linecap="round" stroke-linejoin="round"/>
<path d="M170.029 216C165.363 218.667 155.229 224.6 152.029 227C148.029 230 146.529 233.5 146.529 239.5C146.529 245.5 145.529 265 149.529 291.5" stroke="black" stroke-width="2" stroke-linecap="round" stroke-linejoin="round"/>
<path d="M286.062 379.754C278.939 379.754 271.815 379.754 264.692 379.754C261.024 379.754 257.347 379.834 253.68 379.743C252.281 379.709 250.977 379.438 249.604 379.211C245.133 378.47 240.619 378.007 236.104 377.646C225.589 376.804 215.023 376.232 204.472 376.232C199.027 376.232 193.677 377.015 188.221 377.015C183.732 377.015 179.242 376.977 174.753 377.015C173.142 377.029 171.822 377.307 170.275 377.689C168.706 378.077 167.136 378.047 165.557 378.298C164 378.545 163.368 379.461 164.036 381.08C165.144 383.769 168.334 385.248 170.949 385.928C173.32 386.545 176.773 386.901 179.167 386.059C181.085 385.384 182.775 384.201 184.645 383.417C185.736 382.961 186.879 382.723 187.971 382.298C188.447 382.113 189.732 381.126 189.58 381.124C184.248 381.041 178.777 381.579 173.471 381.026C172.104 380.884 170.795 380.788 169.775 381.961C169.527 382.246 175.034 382.298 175.297 382.298C180.884 382.298 186.471 382.298 192.058 382.298C195.354 382.298 198.645 382.301 201.939 382.396C204.872 382.48 207.775 382.566 210.69 382.928C215.899 383.576 221.001 384.827 226.234 385.298C230.654 385.696 235.207 386.355 239.647 386.407C240.957 386.422 242.375 386.258 243.604 385.776C244.398 385.465 245.334 384.138 244.691 383.254C243.638 381.806 240.219 381.762 238.799 381.646C233.501 381.212 228.154 381.32 222.842 381.32C219.313 381.32 215.91 381.121 212.407 380.613C208.689 380.074 205.063 379.495 201.298 379.57C197.417 379.646 193.576 379.95 189.678 379.95C187.448 379.95 185.241 379.205 183.036 379.363C181.681 379.46 185.657 380.086 186.982 380.385C192.949 381.73 199.065 382.609 205.124 383.428C212.563 384.434 219.81 383.69 227.255 383.668C234.279 383.646 241.437 384.15 248.408 385.015C251.351 385.38 254.114 385.82 257.072 385.82C258.219 385.82 258.092 384.564 257.148 384.168C254.027 382.856 249.79 383.485 246.539 383.45C239.999 383.38 233.476 383.135 226.951 382.7C226.343 382.66 222.297 381.956 222.07 382.863C222.025 383.046 222.447 382.885 222.636 382.885C224.386 382.885 226.136 382.885 227.886 382.885C235.336 382.885 242.785 382.885 250.235 382.885C254.202 382.885 258.17 382.885 262.137 382.885C265.901 382.885 269.676 382.977 273.431 382.667C275.552 382.493 277.757 381.866 279.888 381.907C280.486 381.918 281.03 382.017 281.595 382.211C283.068 382.717 284.609 382.689 286.149 382.689C288.251 382.689 290.352 382.689 292.454 382.689C293.055 382.689 294.86 382.689 294.258 382.689C293.465 382.689 292.678 382.634 291.889 382.559C286.487 382.042 281.105 381.907 275.681 381.907C268.68 381.907 261.733 382.298 254.735 382.298C254.261 382.298 253.678 382.214 253.213 382.33C251.49 382.761 256.402 384.012 258.148 384.341C263.547 385.36 269.36 386.349 274.844 385.276C277.605 384.736 279.856 382.331 282.616 382.091C282.873 382.069 283.624 381.898 283.366 381.907C280.39 382.009 277.477 383.195 274.583 383.776C267.692 385.159 260.727 385.336 253.757 384.613C248.032 384.02 242.37 382.955 236.647 382.341C233.597 382.015 230.646 381.894 227.625 381.276C224.62 380.661 221.668 380.669 218.668 380.254C217.401 380.079 216.256 379.559 214.951 379.559C213.48 379.559 212.008 379.559 210.537 379.559C205.399 379.559 200.39 380.537 195.254 380.537C192.396 380.537 189.686 381.32 186.841 381.32C184.094 381.32 181.348 381.32 178.601 381.32C177.443 381.32 176.281 381.341 175.123 381.32C174.2 381.302 173.355 380.969 172.449 380.928C170.968 380.862 169.06 381.03 167.623 380.689C167.26 380.603 169.05 379.884 169.155 379.83C170.294 379.252 171.216 378.488 172.242 377.754C172.81 377.349 173.804 377.688 174.406 377.798C179.315 378.69 184.15 379.637 189.134 380.037C193.175 380.361 197.176 380.341 201.233 380.341C203.426 380.341 205.609 380.388 207.798 380.537C210.442 380.717 213.077 381.454 215.712 381.515C221.869 381.658 228.064 381.581 234.223 381.504C237.263 381.466 240.205 380.928 243.234 380.928C244.874 380.928 246.48 380.965 248.104 380.733" stroke="#D9D9D9" stroke-width="2" stroke-linecap="round"/>
</svg>
