<svg width="373" height="519" viewBox="0 0 373 519" fill="none" xmlns="http://www.w3.org/2000/svg">
<mask id="path-1-inside-1_5_41" fill="white">
<path fill-rule="evenodd" clip-rule="evenodd" d="M7 0C3.41015 0 0.5 2.91015 0.5 6.5C0.5 10.0899 3.41015 13 7 13H89.3576L121.106 41.2108C122.296 42.268 123.832 42.8519 125.424 42.8519H180.141V48.5H193.141V42.8519H247.516C249.107 42.8519 250.643 42.268 251.833 41.2108L283.582 13H365.939C369.529 13 372.439 10.0899 372.439 6.5C372.439 2.91015 369.529 0 365.939 0H281.111C279.519 0 277.983 0.583921 276.794 1.64108L245.045 29.8519H186.652L186.641 29.8519L186.631 29.8519H186.624C186.591 29.8519 186.557 29.8521 186.524 29.8526L186.47 29.8537C186.418 29.8525 186.367 29.8519 186.315 29.8519H127.894L96.1457 1.64108C94.956 0.583921 93.4197 0 91.8282 0H7ZM186.641 178.252C194.926 178.252 201.641 184.968 201.641 193.252V503.678C201.641 511.962 194.926 518.678 186.641 518.678C178.357 518.678 171.641 511.962 171.641 503.678V193.252C171.641 184.968 178.357 178.252 186.641 178.252ZM133.76 53.579H180.141V53.5H193.141V53.579H237.973L238.185 54.4471C247.046 90.8067 246.622 113.233 244.33 126.368C243.186 132.923 241.571 137.201 240.378 139.779C239.816 140.994 239.336 141.858 238.98 142.498L238.912 142.62L238.883 142.674C238.784 142.851 238.623 143.14 238.479 143.443H133.254C133.11 143.14 132.949 142.851 132.85 142.674L132.821 142.62L132.753 142.498L132.753 142.498C132.397 141.858 131.917 140.994 131.355 139.779C130.162 137.201 128.547 132.923 127.403 126.368C125.111 113.233 124.687 90.8067 133.548 54.4471L133.76 53.579ZM247.639 143.138C247.591 143.241 247.543 143.343 247.496 143.443H295.048C330.654 143.443 327.825 53.579 295.048 53.579H246.206C254.999 90.109 254.717 113.382 252.211 127.743C250.944 135.003 249.115 139.947 247.639 143.138ZM125.527 53.579H73.8845C50.3792 53.579 41.9489 143.443 73.8845 143.443H124.237C124.19 143.343 124.142 143.241 124.094 143.138C122.618 139.947 120.789 135.003 119.522 127.743C117.016 113.382 116.734 90.109 125.527 53.579ZM193.141 152.748L229.642 168.759C232.005 169.795 233.531 172.131 233.531 174.711V349.085C233.531 352.675 230.621 355.585 227.031 355.585C223.441 355.585 220.531 352.675 220.531 349.085V178.958L186.641 164.092L152.752 178.958V349.085C152.752 352.675 149.841 355.585 146.252 355.585C142.662 355.585 139.752 352.675 139.752 349.085V174.711C139.752 172.131 141.278 169.795 143.641 168.759L180.141 152.747V148.363H193.141V152.748ZM131.086 220.749V301.329C131.086 325.588 51 324.548 51 301.329V220.664L51.2852 220.627C51.9983 220.537 53.0366 220.407 54.3319 220.25C56.9231 219.938 60.5385 219.52 64.6321 219.101C72.8598 218.258 82.8729 217.423 90.3925 217.392C98.2844 217.359 108.452 218.193 116.741 219.051C120.865 219.478 124.487 219.908 127.077 220.23C128.372 220.391 129.408 220.526 130.118 220.619C130.473 220.666 130.747 220.703 130.931 220.728L131.086 220.749ZM131.086 212.678V176.138C131.086 159.851 51 161.41 51 176.138V212.6C51.6461 212.519 52.4453 212.42 53.3737 212.308C56.0006 211.991 59.6649 211.568 63.8168 211.143C72.0803 210.296 82.4226 209.425 90.3593 209.392C98.7018 209.358 109.223 210.23 117.565 211.094C121.756 211.528 125.434 211.964 128.066 212.291C129.335 212.449 130.362 212.582 131.086 212.678ZM321.086 301.329V220.749L320.931 220.728C320.849 220.717 320.75 220.704 320.634 220.688C320.488 220.668 320.316 220.645 320.118 220.619C319.408 220.526 318.372 220.391 317.077 220.23C314.487 219.908 310.865 219.478 306.741 219.051C298.452 218.193 288.284 217.359 280.393 217.392C272.873 217.423 262.86 218.258 254.632 219.101C250.538 219.52 246.923 219.938 244.332 220.25C243.037 220.407 241.998 220.537 241.285 220.627L241 220.664V301.329C241 324.548 321.086 325.588 321.086 301.329ZM321.086 176.138V212.678C320.362 212.582 319.335 212.449 318.066 212.291C315.434 211.964 311.756 211.528 307.565 211.094C299.223 210.23 288.702 209.358 280.359 209.392C272.423 209.425 262.08 210.296 253.817 211.143C249.665 211.568 246.001 211.991 243.374 212.308C242.445 212.42 241.646 212.519 241 212.6V176.138C241 161.41 321.086 159.851 321.086 176.138Z"/>
</mask>
<path fill-rule="evenodd" clip-rule="evenodd" d="M7 0C3.41015 0 0.5 2.91015 0.5 6.5C0.5 10.0899 3.41015 13 7 13H89.3576L121.106 41.2108C122.296 42.268 123.832 42.8519 125.424 42.8519H180.141V48.5H193.141V42.8519H247.516C249.107 42.8519 250.643 42.268 251.833 41.2108L283.582 13H365.939C369.529 13 372.439 10.0899 372.439 6.5C372.439 2.91015 369.529 0 365.939 0H281.111C279.519 0 277.983 0.583921 276.794 1.64108L245.045 29.8519H186.652L186.641 29.8519L186.631 29.8519H186.624C186.591 29.8519 186.557 29.8521 186.524 29.8526L186.47 29.8537C186.418 29.8525 186.367 29.8519 186.315 29.8519H127.894L96.1457 1.64108C94.956 0.583921 93.4197 0 91.8282 0H7ZM186.641 178.252C194.926 178.252 201.641 184.968 201.641 193.252V503.678C201.641 511.962 194.926 518.678 186.641 518.678C178.357 518.678 171.641 511.962 171.641 503.678V193.252C171.641 184.968 178.357 178.252 186.641 178.252ZM133.76 53.579H180.141V53.5H193.141V53.579H237.973L238.185 54.4471C247.046 90.8067 246.622 113.233 244.33 126.368C243.186 132.923 241.571 137.201 240.378 139.779C239.816 140.994 239.336 141.858 238.98 142.498L238.912 142.62L238.883 142.674C238.784 142.851 238.623 143.14 238.479 143.443H133.254C133.11 143.14 132.949 142.851 132.85 142.674L132.821 142.62L132.753 142.498L132.753 142.498C132.397 141.858 131.917 140.994 131.355 139.779C130.162 137.201 128.547 132.923 127.403 126.368C125.111 113.233 124.687 90.8067 133.548 54.4471L133.76 53.579ZM247.639 143.138C247.591 143.241 247.543 143.343 247.496 143.443H295.048C330.654 143.443 327.825 53.579 295.048 53.579H246.206C254.999 90.109 254.717 113.382 252.211 127.743C250.944 135.003 249.115 139.947 247.639 143.138ZM125.527 53.579H73.8845C50.3792 53.579 41.9489 143.443 73.8845 143.443H124.237C124.19 143.343 124.142 143.241 124.094 143.138C122.618 139.947 120.789 135.003 119.522 127.743C117.016 113.382 116.734 90.109 125.527 53.579ZM193.141 152.748L229.642 168.759C232.005 169.795 233.531 172.131 233.531 174.711V349.085C233.531 352.675 230.621 355.585 227.031 355.585C223.441 355.585 220.531 352.675 220.531 349.085V178.958L186.641 164.092L152.752 178.958V349.085C152.752 352.675 149.841 355.585 146.252 355.585C142.662 355.585 139.752 352.675 139.752 349.085V174.711C139.752 172.131 141.278 169.795 143.641 168.759L180.141 152.747V148.363H193.141V152.748ZM131.086 220.749V301.329C131.086 325.588 51 324.548 51 301.329V220.664L51.2852 220.627C51.9983 220.537 53.0366 220.407 54.3319 220.25C56.9231 219.938 60.5385 219.52 64.6321 219.101C72.8598 218.258 82.8729 217.423 90.3925 217.392C98.2844 217.359 108.452 218.193 116.741 219.051C120.865 219.478 124.487 219.908 127.077 220.23C128.372 220.391 129.408 220.526 130.118 220.619C130.473 220.666 130.747 220.703 130.931 220.728L131.086 220.749ZM131.086 212.678V176.138C131.086 159.851 51 161.41 51 176.138V212.6C51.6461 212.519 52.4453 212.42 53.3737 212.308C56.0006 211.991 59.6649 211.568 63.8168 211.143C72.0803 210.296 82.4226 209.425 90.3593 209.392C98.7018 209.358 109.223 210.23 117.565 211.094C121.756 211.528 125.434 211.964 128.066 212.291C129.335 212.449 130.362 212.582 131.086 212.678ZM321.086 301.329V220.749L320.931 220.728C320.849 220.717 320.75 220.704 320.634 220.688C320.488 220.668 320.316 220.645 320.118 220.619C319.408 220.526 318.372 220.391 317.077 220.23C314.487 219.908 310.865 219.478 306.741 219.051C298.452 218.193 288.284 217.359 280.393 217.392C272.873 217.423 262.86 218.258 254.632 219.101C250.538 219.52 246.923 219.938 244.332 220.25C243.037 220.407 241.998 220.537 241.285 220.627L241 220.664V301.329C241 324.548 321.086 325.588 321.086 301.329ZM321.086 176.138V212.678C320.362 212.582 319.335 212.449 318.066 212.291C315.434 211.964 311.756 211.528 307.565 211.094C299.223 210.23 288.702 209.358 280.359 209.392C272.423 209.425 262.08 210.296 253.817 211.143C249.665 211.568 246.001 211.991 243.374 212.308C242.445 212.42 241.646 212.519 241 212.6V176.138C241 161.41 321.086 159.851 321.086 176.138Z" fill="#FBBF24"/>
<path d="M89.3576 13L95.3356 6.27226L92.7784 4H89.3576V13ZM121.106 41.2108L115.128 47.9385L115.128 47.9386L121.106 41.2108ZM180.141 42.8519H189.141V33.8519H180.141V42.8519ZM180.141 48.5H171.141V57.5H180.141V48.5ZM193.141 48.5V57.5H202.141V48.5H193.141ZM193.141 42.8519V33.8519H184.141V42.8519H193.141ZM251.833 41.2108L257.811 47.9386L257.811 47.9385L251.833 41.2108ZM283.582 13V4H280.161L277.604 6.27226L283.582 13ZM276.794 1.64108L282.772 8.36882L282.772 8.36875L276.794 1.64108ZM245.045 29.8519V38.8519H248.466L251.023 36.5796L245.045 29.8519ZM186.652 29.8519L186.645 38.8519H186.652V29.8519ZM186.641 29.8519L186.648 20.8519L186.635 20.8519L186.641 29.8519ZM186.631 29.8519L186.631 38.8519L186.638 38.8519L186.631 29.8519ZM186.524 29.8526L186.388 20.8537L186.369 20.8539L186.351 20.8543L186.524 29.8526ZM186.47 29.8537L186.26 38.8512L186.451 38.8557L186.643 38.852L186.47 29.8537ZM127.894 29.8519L121.916 36.5796L124.473 38.8519H127.894V29.8519ZM96.1457 1.64108L90.1676 8.36881L90.1676 8.36882L96.1457 1.64108ZM180.141 53.579V62.579H189.141V53.579H180.141ZM133.76 53.579V44.579H126.69L125.016 51.448L133.76 53.579ZM180.141 53.5V44.5H171.141V53.5H180.141ZM193.141 53.5H202.141V44.5H193.141V53.5ZM193.141 53.579H184.141V62.579H193.141V53.579ZM237.973 53.579L246.717 51.448L245.043 44.579H237.973V53.579ZM238.185 54.4471L229.441 56.5782L229.441 56.5782L238.185 54.4471ZM244.33 126.368L235.464 124.82L235.464 124.82L244.33 126.368ZM240.378 139.779L248.546 143.558L248.546 143.558L240.378 139.779ZM238.98 142.498L231.113 138.128L231.112 138.128L238.98 142.498ZM238.912 142.62L246.779 146.993L246.78 146.99L238.912 142.62ZM238.883 142.674L246.746 147.051L246.749 147.047L238.883 142.674ZM238.479 143.443V152.443H244.168L246.609 147.305L238.479 143.443ZM133.254 143.443L125.124 147.305L127.565 152.443H133.254V143.443ZM132.85 142.674L124.985 147.048L124.987 147.051L132.85 142.674ZM132.821 142.62L124.952 146.989L124.955 146.995L132.821 142.62ZM132.753 142.498L140.621 138.129L140.523 137.953L140.418 137.781L132.753 142.498ZM132.753 142.498L124.885 146.868L124.983 147.044L125.088 147.215L132.753 142.498ZM131.355 139.779L139.523 135.999L139.523 135.999L131.355 139.779ZM127.403 126.368L118.537 127.915L118.537 127.915L127.403 126.368ZM133.548 54.4471L142.292 56.5782L142.292 56.5782L133.548 54.4471ZM247.496 143.443L239.357 139.601L233.296 152.443H247.496V143.443ZM247.639 143.138L239.471 139.359L239.47 139.359L247.639 143.138ZM246.206 53.579V44.579H234.782L237.456 55.6853L246.206 53.579ZM252.211 127.743L261.077 129.29L261.077 129.29L252.211 127.743ZM125.527 53.579L134.277 55.6853L136.95 44.579H125.527V53.579ZM124.237 143.443V152.443H138.436L132.376 139.601L124.237 143.443ZM124.094 143.138L115.926 146.917L115.926 146.917L124.094 143.138ZM119.522 127.743L128.388 126.196L128.388 126.196L119.522 127.743ZM229.642 168.759L226.027 177.001L226.027 177.001L229.642 168.759ZM193.141 152.748H184.141V158.627L189.526 160.989L193.141 152.748ZM220.531 178.958H229.531V173.078L224.147 170.716L220.531 178.958ZM186.641 164.092L190.257 155.85L186.641 154.264L183.026 155.85L186.641 164.092ZM152.752 178.958L149.136 170.716L143.752 173.078V178.958H152.752ZM143.641 168.759L147.256 177.001L147.256 177.001L143.641 168.759ZM180.141 152.747L183.757 160.989L189.141 158.627V152.747H180.141ZM180.141 148.363V139.363H171.141V148.363H180.141ZM193.141 148.363H202.141V139.363H193.141V148.363ZM131.086 220.749H140.086V212.89L132.3 211.831L131.086 220.749ZM51 220.664L49.8611 211.736L42 212.739V220.664H51ZM51.2852 220.627L50.1499 211.699L50.1463 211.7L51.2852 220.627ZM54.3319 220.25L53.2539 211.315L53.2539 211.315L54.3319 220.25ZM64.6321 219.101L65.5494 228.054L65.5494 228.054L64.6321 219.101ZM90.3925 217.392L90.3551 208.392L90.3551 208.392L90.3925 217.392ZM116.741 219.051L115.814 228.003L115.814 228.003L116.741 219.051ZM127.077 220.23L125.965 229.161L125.966 229.161L127.077 220.23ZM130.118 220.619L131.297 211.697L131.296 211.697L130.118 220.619ZM130.931 220.728L132.144 211.81L132.138 211.809L130.931 220.728ZM131.086 212.678L129.91 221.601L140.086 222.942V212.678H131.086ZM51 212.6H42V222.799L52.1195 221.53L51 212.6ZM53.3737 212.308L52.2957 203.373L52.2956 203.373L53.3737 212.308ZM63.8168 211.143L62.8996 202.189L62.8996 202.189L63.8168 211.143ZM90.3593 209.392L90.322 200.392L90.3219 200.392L90.3593 209.392ZM117.565 211.094L118.492 202.142L118.492 202.142L117.565 211.094ZM128.066 212.291L126.954 221.222L126.954 221.222L128.066 212.291ZM321.086 220.749H330.086V212.89L322.299 211.831L321.086 220.749ZM320.931 220.728L322.144 211.81L322.138 211.809L320.931 220.728ZM320.634 220.688L319.439 229.608L319.44 229.608L320.634 220.688ZM320.118 220.619L321.297 211.697L321.296 211.697L320.118 220.619ZM317.077 220.23L315.965 229.161L315.966 229.161L317.077 220.23ZM306.741 219.051L305.814 228.003L305.814 228.003L306.741 219.051ZM280.393 217.392L280.355 208.392L280.355 208.392L280.393 217.392ZM254.632 219.101L253.715 210.148L253.715 210.148L254.632 219.101ZM244.332 220.25L243.254 211.315L243.254 211.315L244.332 220.25ZM241.285 220.627L240.15 211.699L240.146 211.7L241.285 220.627ZM241 220.664L239.861 211.736L232 212.739V220.664H241ZM321.086 212.678L319.91 221.601L330.086 222.942V212.678H321.086ZM318.066 212.291L316.954 221.222L316.954 221.222L318.066 212.291ZM307.565 211.094L308.492 202.142L308.492 202.142L307.565 211.094ZM280.359 209.392L280.322 200.392L280.322 200.392L280.359 209.392ZM253.817 211.143L252.9 202.189L252.9 202.189L253.817 211.143ZM243.374 212.308L242.296 203.373L242.296 203.373L243.374 212.308ZM241 212.6H232V222.799L242.12 221.53L241 212.6ZM9.5 6.5C9.5 7.88071 8.38071 9 7 9V-9C-1.56041 -9 -8.5 -2.06041 -8.5 6.5H9.5ZM7 4C8.38071 4 9.5 5.11929 9.5 6.5H-8.5C-8.5 15.0604 -1.56041 22 7 22V4ZM89.3576 4H7V22H89.3576V4ZM127.084 34.4831L95.3356 6.27226L83.3795 19.7277L115.128 47.9385L127.084 34.4831ZM125.424 33.8519C126.036 33.8519 126.627 34.0765 127.084 34.483L115.128 47.9386C117.965 50.4594 121.628 51.8519 125.424 51.8519V33.8519ZM180.141 33.8519H125.424V51.8519H180.141V33.8519ZM189.141 48.5V42.8519H171.141V48.5H189.141ZM193.141 39.5H180.141V57.5H193.141V39.5ZM184.141 42.8519V48.5H202.141V42.8519H184.141ZM247.516 33.8519H193.141V51.8519H247.516V33.8519ZM245.855 34.483C246.313 34.0765 246.904 33.8519 247.516 33.8519V51.8519C251.311 51.8519 254.974 50.4595 257.811 47.9386L245.855 34.483ZM277.604 6.27226L245.855 34.4831L257.811 47.9385L289.56 19.7277L277.604 6.27226ZM365.939 4H283.582V22H365.939V4ZM363.439 6.5C363.439 5.11928 364.558 4 365.939 4V22C374.5 22 381.439 15.0604 381.439 6.5H363.439ZM365.939 9C364.558 9 363.439 7.88072 363.439 6.5H381.439C381.439 -2.06042 374.5 -9 365.939 -9V9ZM281.111 9H365.939V-9H281.111V9ZM282.772 8.36875C282.314 8.77544 281.723 9 281.111 9V-9C277.316 -9 273.652 -7.6076 270.815 -5.0866L282.772 8.36875ZM251.023 36.5796L282.772 8.36882L270.815 -5.08667L239.067 23.1241L251.023 36.5796ZM186.652 38.8519H245.045V20.8519H186.652V38.8519ZM186.635 38.8519L186.645 38.8519L186.658 20.8519L186.648 20.8519L186.635 38.8519ZM186.638 38.8519L186.648 38.8519L186.635 20.8519L186.625 20.8519L186.638 38.8519ZM186.624 38.8519H186.631V20.8519H186.624V38.8519ZM186.66 38.8516C186.648 38.8518 186.636 38.8519 186.624 38.8519V20.8519C186.545 20.8519 186.466 20.8525 186.388 20.8537L186.66 38.8516ZM186.643 38.852L186.697 38.851L186.351 20.8543L186.297 20.8553L186.643 38.852ZM186.315 38.8519C186.297 38.8519 186.278 38.8517 186.26 38.8512L186.68 20.8561C186.558 20.8533 186.437 20.8519 186.315 20.8519V38.8519ZM127.894 38.8519H186.315V20.8519H127.894V38.8519ZM90.1676 8.36882L121.916 36.5796L133.872 23.1241L102.124 -5.08666L90.1676 8.36882ZM91.8282 9C91.2161 9 90.6252 8.77542 90.1676 8.36881L102.124 -5.08666C99.2868 -7.60758 95.6234 -9 91.8282 -9V9ZM7 9H91.8282V-9H7V9ZM210.641 193.252C210.641 179.998 199.896 169.252 186.641 169.252V187.252C189.955 187.252 192.641 189.939 192.641 193.252H210.641ZM210.641 503.678V193.252H192.641V503.678H210.641ZM186.641 527.678C199.896 527.678 210.641 516.932 210.641 503.678H192.641C192.641 506.991 189.955 509.678 186.641 509.678V527.678ZM162.641 503.678C162.641 516.932 173.387 527.678 186.641 527.678V509.678C183.328 509.678 180.641 506.991 180.641 503.678H162.641ZM162.641 193.252V503.678H180.641V193.252H162.641ZM186.641 169.252C173.387 169.252 162.641 179.998 162.641 193.252H180.641C180.641 189.939 183.328 187.252 186.641 187.252V169.252ZM180.141 44.579H133.76V62.579H180.141V44.579ZM171.141 53.5V53.579H189.141V53.5H171.141ZM193.141 44.5H180.141V62.5H193.141V44.5ZM202.141 53.579V53.5H184.141V53.579H202.141ZM237.973 44.579H193.141V62.579H237.973V44.579ZM246.929 52.3161L246.717 51.448L229.229 55.7101L229.441 56.5782L246.929 52.3161ZM253.196 127.915C255.755 113.249 255.999 89.5323 246.929 52.3161L229.441 56.5782C238.093 92.081 237.489 113.216 235.464 124.82L253.196 127.915ZM248.546 143.558C250.058 140.29 251.914 135.263 253.196 127.915L235.464 124.82C234.458 130.583 233.083 134.112 232.21 135.999L248.546 143.558ZM246.848 146.869C247.226 146.188 247.839 145.087 248.546 143.558L232.21 135.999C231.793 136.902 231.446 137.528 231.113 138.128L246.848 146.869ZM246.78 146.99L246.848 146.868L231.112 138.128L231.044 138.251L246.78 146.99ZM246.749 147.047L246.779 146.993L231.046 138.248L231.016 138.301L246.749 147.047ZM246.609 147.305C246.603 147.317 246.611 147.299 246.639 147.246C246.667 147.193 246.696 147.141 246.746 147.051L231.019 138.296C230.927 138.462 230.634 138.983 230.35 139.58L246.609 147.305ZM133.254 152.443H238.479V134.443H133.254V152.443ZM124.987 147.051C125.037 147.141 125.066 147.193 125.094 147.246C125.122 147.299 125.13 147.317 125.124 147.305L141.383 139.58C141.099 138.983 140.806 138.462 140.714 138.296L124.987 147.051ZM124.955 146.995L124.985 147.048L140.716 138.299L140.686 138.246L124.955 146.995ZM124.884 146.867L124.952 146.989L140.689 138.251L140.621 138.129L124.884 146.867ZM125.088 147.215L125.088 147.215L140.418 137.781L140.418 137.781L125.088 147.215ZM123.187 143.558C123.894 145.087 124.507 146.188 124.885 146.868L140.62 138.127C140.287 137.528 139.94 136.901 139.523 135.999L123.187 143.558ZM118.537 127.915C119.819 135.263 121.675 140.29 123.187 143.558L139.523 135.999C138.65 134.112 137.275 130.583 136.269 124.82L118.537 127.915ZM124.804 52.3161C115.734 89.5323 115.978 113.249 118.537 127.915L136.269 124.82C134.244 113.216 133.64 92.081 142.292 56.5782L124.804 52.3161ZM125.016 51.448L124.804 52.3161L142.292 56.5782L142.504 55.7101L125.016 51.448ZM255.635 147.284C255.692 147.164 255.749 147.041 255.807 146.917L239.47 139.359C239.432 139.441 239.395 139.522 239.357 139.601L255.635 147.284ZM295.048 134.443H247.496V152.443H295.048V134.443ZM295.048 62.579C298.407 62.579 302.292 64.7385 305.874 71.7254C309.398 78.601 311.531 88.386 311.693 98.6524C311.855 108.937 310.021 118.619 306.635 125.363C303.306 131.993 299.344 134.443 295.048 134.443V152.443C308.554 152.443 317.591 143.659 322.722 133.44C327.795 123.335 329.882 110.55 329.691 98.3691C329.498 86.1697 327.004 73.4888 321.892 63.515C316.837 53.6525 308.077 44.579 295.048 44.579V62.579ZM246.206 62.579H295.048V44.579H246.206V62.579ZM261.077 129.29C263.847 113.412 263.955 88.8581 254.956 51.4728L237.456 55.6853C246.043 91.3599 245.586 113.351 243.345 126.196L261.077 129.29ZM255.807 146.917C257.603 143.036 259.671 137.343 261.077 129.29L243.345 126.196C242.216 132.663 240.628 136.858 239.471 139.359L255.807 146.917ZM73.8845 62.579H125.527V44.579H73.8845V62.579ZM73.8845 134.443C71.2571 134.443 68.1882 132.948 65.475 126.09C62.781 119.281 61.5909 109.452 62.0843 98.9325C62.5748 88.4755 64.6813 78.3524 67.7545 71.154C69.2988 67.5367 70.8896 65.1264 72.2414 63.7525C72.8883 63.0951 73.3609 62.7971 73.6157 62.6724C73.7379 62.6126 73.8104 62.5921 73.8378 62.5855C73.8627 62.5795 73.8738 62.579 73.8845 62.579V44.579C67.8287 44.579 62.9515 47.5295 59.4107 51.1282C55.9271 54.6687 53.2525 59.279 51.2 64.0864C47.0797 73.7374 44.6673 86.0802 44.104 98.0891C43.5437 110.036 44.7648 122.672 48.7375 132.713C52.6909 142.704 60.5441 152.443 73.8845 152.443V134.443ZM124.237 134.443H73.8845V152.443H124.237V134.443ZM115.926 146.917C115.984 147.042 116.041 147.164 116.098 147.284L132.376 139.601C132.338 139.522 132.301 139.441 132.262 139.358L115.926 146.917ZM110.656 129.29C112.062 137.343 114.13 143.036 115.926 146.917L132.262 139.359C131.105 136.858 129.517 132.663 128.388 126.196L110.656 129.29ZM116.777 51.4728C107.778 88.8581 107.886 113.412 110.656 129.29L128.388 126.196C126.147 113.351 125.69 91.3599 134.277 55.6853L116.777 51.4728ZM233.258 160.517L196.757 144.506L189.526 160.989L226.027 177.001L233.258 160.517ZM242.531 174.711C242.531 168.559 238.892 162.988 233.258 160.517L226.027 177.001C225.118 176.602 224.531 175.704 224.531 174.711H242.531ZM242.531 349.085V174.711H224.531V349.085H242.531ZM227.031 364.585C235.592 364.585 242.531 357.645 242.531 349.085H224.531C224.531 347.704 225.651 346.585 227.031 346.585V364.585ZM211.531 349.085C211.531 357.645 218.471 364.585 227.031 364.585V346.585C228.412 346.585 229.531 347.704 229.531 349.085H211.531ZM211.531 178.958V349.085H229.531V178.958H211.531ZM183.026 172.334L216.916 187.2L224.147 170.716L190.257 155.85L183.026 172.334ZM156.367 187.2L190.257 172.334L183.026 155.85L149.136 170.716L156.367 187.2ZM161.752 349.085V178.958H143.752V349.085H161.752ZM146.252 364.585C154.812 364.585 161.752 357.645 161.752 349.085H143.752C143.752 347.704 144.871 346.585 146.252 346.585V364.585ZM130.752 349.085C130.752 357.645 137.691 364.585 146.252 364.585V346.585C147.632 346.585 148.752 347.704 148.752 349.085H130.752ZM130.752 174.711V349.085H148.752V174.711H130.752ZM140.025 160.517C134.391 162.988 130.752 168.559 130.752 174.711H148.752C148.752 175.704 148.165 176.602 147.256 177.001L140.025 160.517ZM176.526 144.506L140.025 160.517L147.256 177.001L183.757 160.989L176.526 144.506ZM171.141 148.363V152.747H189.141V148.363H171.141ZM193.141 139.363H180.141V157.363H193.141V139.363ZM202.141 152.748V148.363H184.141V152.748H202.141ZM140.086 301.329V220.749H122.086V301.329H140.086ZM42 301.329C42 313.136 52.0914 319.682 60.1899 322.9C69.0516 326.421 80.2524 328.064 90.9848 328.133C101.708 328.203 112.95 326.709 121.865 323.205C130.174 319.939 140.086 313.288 140.086 301.329H122.086C122.086 301.5 121.988 303.816 115.281 306.452C109.18 308.85 100.4 310.194 91.1017 310.134C81.8125 310.073 72.9917 308.618 66.8371 306.172C63.7534 304.947 61.8428 303.671 60.8244 302.646C59.9333 301.75 60 301.368 60 301.329H42ZM42 220.664V301.329H60V220.664H42ZM50.1463 211.7L49.8611 211.736L52.1389 229.591L52.424 229.555L50.1463 211.7ZM53.2539 211.315C51.9377 211.474 50.8802 211.606 50.1499 211.699L52.4205 229.555C53.1164 229.467 54.1356 229.339 55.4099 229.186L53.2539 211.315ZM63.7149 210.148C59.5556 210.574 55.8853 210.998 53.2539 211.315L55.4099 229.186C57.961 228.878 61.5213 228.467 65.5494 228.054L63.7149 210.148ZM90.3551 208.392C82.3662 208.425 71.9826 209.301 63.7149 210.148L65.5494 228.054C73.737 227.215 83.3796 226.421 90.4299 226.392L90.3551 208.392ZM117.668 210.099C109.32 209.234 98.7542 208.357 90.3551 208.392L90.4299 226.392C97.8146 226.361 107.584 227.151 115.814 228.003L117.668 210.099ZM128.189 211.299C125.553 210.971 121.867 210.534 117.668 210.099L115.814 228.003C119.863 228.423 123.422 228.844 125.965 229.161L128.189 211.299ZM131.296 211.697C130.566 211.6 129.508 211.463 128.189 211.299L125.966 229.161C127.236 229.319 128.249 229.451 128.94 229.542L131.296 211.697ZM132.138 211.809C131.945 211.783 131.662 211.745 131.297 211.697L128.94 229.542C129.285 229.587 129.549 229.623 129.724 229.647L132.138 211.809ZM132.3 211.831L132.144 211.81L129.718 229.646L129.873 229.667L132.3 211.831ZM122.086 176.138V212.678H140.086V176.138H122.086ZM60 176.138C60 178.856 58.1105 179.589 59.3388 178.792C60.3664 178.126 62.4396 177.218 65.7899 176.342C72.3538 174.626 81.5767 173.6 91.1309 173.507C100.7 173.414 109.865 174.264 116.35 175.917C119.657 176.76 121.639 177.658 122.588 178.303C123.553 178.958 122.086 178.323 122.086 176.138H140.086C140.086 169.882 136.118 165.733 132.702 163.413C129.271 161.083 124.997 159.546 120.796 158.475C112.264 156.3 101.408 155.406 90.9556 155.508C80.4881 155.61 69.6894 156.717 61.2371 158.927C57.0793 160.014 52.8958 161.517 49.5437 163.691C46.3922 165.735 42 169.739 42 176.138H60ZM60 212.6V176.138H42V212.6H60ZM52.2956 203.373C51.3525 203.487 50.5393 203.587 49.8805 203.67L52.1195 221.53C52.7528 221.451 53.5382 221.353 54.4517 221.243L52.2956 203.373ZM62.8996 202.189C58.682 202.621 54.9627 203.051 52.2957 203.373L54.4516 221.243C57.0385 220.931 60.6477 220.514 64.7341 220.096L62.8996 202.189ZM90.3219 200.392C81.9162 200.427 71.2037 201.339 62.8996 202.189L64.734 220.096C72.957 219.253 82.929 218.423 90.3967 218.392L90.3219 200.392ZM118.492 202.142C110.091 201.271 99.1714 200.355 90.322 200.392L90.3967 218.392C98.2323 218.36 108.356 219.188 116.638 220.046L118.492 202.142ZM129.178 203.36C126.499 203.027 122.758 202.583 118.492 202.142L116.638 220.046C120.754 220.472 124.369 220.901 126.954 221.222L129.178 203.36ZM132.263 203.755C131.519 203.657 130.47 203.521 129.178 203.36L126.954 221.222C128.2 221.378 129.205 221.508 129.91 221.601L132.263 203.755ZM312.086 220.749V301.329H330.086V220.749H312.086ZM319.718 229.646L319.874 229.667L322.299 211.831L322.144 211.81L319.718 229.646ZM319.44 229.608C319.551 229.623 319.646 229.636 319.724 229.647L322.138 211.809C322.052 211.798 321.948 211.784 321.828 211.768L319.44 229.608ZM318.94 229.542C319.131 229.567 319.298 229.589 319.439 229.608L321.828 211.768C321.678 211.747 321.5 211.724 321.297 211.697L318.94 229.542ZM315.966 229.161C317.236 229.319 318.249 229.451 318.94 229.542L321.296 211.697C320.566 211.6 319.508 211.463 318.189 211.299L315.966 229.161ZM305.814 228.003C309.863 228.423 313.422 228.844 315.965 229.161L318.189 211.299C315.553 210.971 311.867 210.534 307.668 210.099L305.814 228.003ZM280.43 226.392C287.815 226.361 297.584 227.151 305.814 228.003L307.668 210.099C299.32 209.234 288.754 208.357 280.355 208.392L280.43 226.392ZM255.549 228.054C263.737 227.215 273.38 226.421 280.43 226.392L280.355 208.392C272.366 208.425 261.983 209.301 253.715 210.148L255.549 228.054ZM245.41 229.186C247.961 228.878 251.521 228.467 255.549 228.054L253.715 210.148C249.556 210.574 245.885 210.998 243.254 211.315L245.41 229.186ZM242.42 229.555C243.116 229.467 244.136 229.339 245.41 229.186L243.254 211.315C241.938 211.474 240.88 211.606 240.15 211.699L242.42 229.555ZM242.139 229.591L242.424 229.555L240.146 211.7L239.861 211.736L242.139 229.591ZM250 301.329V220.664H232V301.329H250ZM312.086 301.329C312.086 301.5 311.988 303.816 305.281 306.452C299.18 308.85 290.4 310.194 281.102 310.134C271.812 310.073 262.992 308.618 256.837 306.172C253.753 304.947 251.843 303.671 250.824 302.646C249.933 301.75 250 301.368 250 301.329H232C232 313.136 242.091 319.682 250.19 322.9C259.052 326.421 270.252 328.064 280.985 328.133C291.708 328.203 302.95 326.709 311.865 323.205C320.174 319.939 330.086 313.288 330.086 301.329H312.086ZM330.086 212.678V176.138H312.086V212.678H330.086ZM316.954 221.222C318.2 221.378 319.205 221.508 319.91 221.601L322.263 203.755C321.519 203.657 320.47 203.521 319.178 203.36L316.954 221.222ZM306.638 220.046C310.754 220.472 314.369 220.901 316.954 221.222L319.178 203.36C316.499 203.027 312.758 202.583 308.492 202.142L306.638 220.046ZM280.397 218.392C288.232 218.36 298.356 219.188 306.638 220.046L308.492 202.142C300.091 201.271 289.171 200.355 280.322 200.392L280.397 218.392ZM254.734 220.096C262.957 219.253 272.929 218.423 280.397 218.392L280.322 200.392C271.916 200.427 261.204 201.339 252.9 202.189L254.734 220.096ZM244.452 221.243C247.038 220.931 250.648 220.514 254.734 220.096L252.9 202.189C248.682 202.621 244.963 203.051 242.296 203.373L244.452 221.243ZM242.12 221.53C242.753 221.451 243.538 221.353 244.452 221.243L242.296 203.373C241.352 203.487 240.539 203.587 239.88 203.67L242.12 221.53ZM232 176.138V212.6H250V176.138H232ZM330.086 176.138C330.086 169.882 326.118 165.733 322.702 163.413C319.271 161.083 314.997 159.546 310.796 158.475C302.264 156.3 291.408 155.406 280.956 155.508C270.488 155.61 259.689 156.717 251.237 158.927C247.079 160.014 242.896 161.517 239.544 163.691C236.392 165.735 232 169.739 232 176.138H250C250 178.856 248.11 179.589 249.339 178.792C250.366 178.126 252.44 177.218 255.79 176.342C262.354 174.626 271.577 173.6 281.131 173.507C290.7 173.414 299.865 174.264 306.35 175.917C309.657 176.76 311.639 177.658 312.588 178.303C313.553 178.958 312.086 178.323 312.086 176.138H330.086Z" fill="#1E1E1E" mask="url(#path-1-inside-1_5_41)"/>
</svg>
