<svg width="1000" height="1000" viewBox="0 0 1000 1000" fill="none" xmlns="http://www.w3.org/2000/svg">
<g clip-path="url(#clip0_1_2)">
<rect width="1000" height="1000" rx="500" fill="#4B5013"/>
<path d="M443.421 579.775V454.584C443.421 438.296 363.335 439.856 363.335 454.584V579.775C363.335 602.994 443.421 604.033 443.421 579.775Z" fill="#DEE778"/>
<path d="M362 495.249C362 495.249 387.254 491.902 402.711 491.838C418.945 491.77 444.089 495.249 444.089 495.249" stroke="#4B5013" stroke-width="8"/>
<path d="M637.448 579.775V454.584C637.448 438.296 557.361 439.856 557.361 454.584V579.775C557.361 602.994 637.448 604.033 637.448 579.775Z" fill="#DEE778"/>
<path d="M556.026 495.249C556.026 495.249 581.281 491.902 596.737 491.838C612.971 491.77 638.115 495.249 638.115 495.249" stroke="#4B5013" stroke-width="8"/>
<path d="M321 285H405.828L439.424 314.852H500.315" stroke="#DEE778" stroke-width="13" stroke-miterlimit="2.61313" stroke-linecap="round" stroke-linejoin="round"/>
<path d="M679.939 285H595.111L561.516 314.852H500.624" stroke="#DEE778" stroke-width="13" stroke-miterlimit="2.61313" stroke-linecap="round" stroke-linejoin="round"/>
<path d="M500.641 314.852V435.494L460.252 453.211V627.585" stroke="#DEE778" stroke-width="13" stroke-linecap="round" stroke-linejoin="round"/>
<path d="M500.641 314.852V435.494L541.031 453.211V627.585" stroke="#DEE778" stroke-width="13" stroke-linecap="round" stroke-linejoin="round"/>
<path d="M500.641 471.752V782.178" stroke="#DEE778" stroke-width="30" stroke-linecap="round"/>
<path d="M609.048 332.079H387.884C364.379 332.079 355.949 421.943 387.884 421.943H609.048C644.654 421.943 641.825 332.079 609.048 332.079Z" fill="#DEE778" stroke="#4B5013" stroke-width="5" stroke-linecap="round"/>
<path d="M443.662 420C445.039 420 425.754 402.688 443.662 334" stroke="#4B5013" stroke-width="8" stroke-linecap="square"/>
<path d="M556.071 420C554.694 420 573.979 402.688 556.071 334" stroke="#4B5013" stroke-width="8" stroke-linecap="square"/>
<path d="M153.55 251.606L155.181 252.721C159.322 255.553 159.956 258.933 157.124 263.074L156.009 264.705C153.306 268.657 149.84 269.417 145.7 266.585L144.069 265.47C140.116 262.767 139.442 259.175 142.145 255.223L143.261 253.592C146.093 249.452 149.598 248.903 153.55 251.606Z" fill="#DEE778"/>
<path d="M247.787 170L247 170.597C246.152 171.24 246.094 171.666 246.736 172.514L256.012 184.747C257.343 186.503 257.226 187.355 255.47 188.687L251.594 191.626C249.837 192.957 248.986 192.84 247.654 191.084L216.615 150.144C215.283 148.388 215.4 147.536 217.156 146.205L225.151 140.144C234.356 133.164 241.06 133.327 247.259 141.503L252.447 148.346C258.646 156.522 256.993 163.021 247.787 170ZM230.528 151.136L238.655 161.855C239.298 162.703 239.724 162.761 240.572 162.119L241.844 161.154C244.811 158.904 245.225 156.683 242.883 153.594L239.623 149.295C237.281 146.206 235.031 146.005 232.063 148.255L230.792 149.219C229.944 149.862 229.885 150.288 230.528 151.136Z" fill="#DEE778"/>
<path d="M292.026 111.456L296.014 118.976C296.477 119.849 296.923 120.043 297.863 119.544L306.189 115.129C308.136 114.096 308.958 114.348 309.991 116.296L312.341 120.727C313.373 122.674 313.121 123.496 311.308 124.458L302.848 128.944C301.908 129.443 301.782 129.854 302.281 130.794L307.479 140.596C307.942 141.469 308.389 141.663 309.329 141.164L318.46 136.321C320.407 135.289 321.229 135.541 322.262 137.488L324.612 141.92C325.645 143.867 325.392 144.689 323.445 145.721L306.324 154.801C304.377 155.834 303.555 155.582 302.522 153.634L278.452 108.246C277.419 106.299 277.671 105.477 279.618 104.444L296.74 95.3644C298.687 94.3318 299.509 94.5841 300.542 96.5313L302.892 100.963C303.924 102.91 303.672 103.732 301.725 104.764L292.593 109.607C291.653 110.105 291.527 110.516 292.026 111.456Z" fill="#DEE778"/>
<path d="M352.351 72.1131C366.172 67.4329 370.686 71.5212 374.829 83.7587L381.411 103.195C385.555 115.432 384.454 121.422 370.632 126.102L361.85 129.076C359.763 129.782 358.992 129.402 358.285 127.314L341.807 78.6522C341.1 76.5647 341.481 75.7938 343.569 75.0869L352.351 72.1131ZM355.547 82.2641C354.54 82.6053 354.349 82.9908 354.69 83.9986L365.269 115.24C365.586 116.176 365.996 116.438 367.004 116.097L367.796 115.829C371.827 114.464 372.993 111.983 371.408 107.304L364.388 86.5722C362.804 81.8931 360.37 80.6309 356.339 81.9959L355.547 82.2641Z" fill="#DEE778"/>
<path d="M431.87 107.448C432.232 109.622 431.733 110.322 429.559 110.685L424.761 111.486C422.587 111.849 421.888 111.349 421.525 109.175L418.321 89.9846C417.771 86.6862 417.696 85.3119 418.095 82.1632L421.1 58.1609C421.474 54.8623 422.123 54.1375 426.021 53.4868L428.72 53.0363C432.618 52.3857 433.468 52.8603 434.893 55.8585L445.531 77.5836C446.919 80.357 447.306 81.7562 447.857 85.0546L451.06 104.245C451.423 106.419 450.923 107.119 448.749 107.482L443.952 108.283C441.778 108.645 441.078 108.146 440.715 105.972L439.063 96.0767C438.888 95.0273 438.538 94.7775 437.489 94.9526L431.342 95.9787C430.292 96.1539 430.043 96.5038 430.218 97.5532L431.87 107.448ZM435.962 84.4203C436.787 84.2827 437.186 83.9077 437.074 83.2331C437.011 82.8583 436.874 82.496 436.736 82.1337L430.873 68.2414C430.598 67.5168 430.423 67.3919 429.748 67.5045C429.074 67.6171 428.949 67.7921 428.924 68.5667L427.89 83.6102C427.878 83.9975 427.866 84.3848 427.928 84.7596C428.041 85.4343 428.541 85.6591 429.365 85.5214L435.962 84.4203Z" fill="#DEE778"/>
<path d="M500.347 92.543C500.351 93.455 500.656 93.7577 501.72 93.7532L511.22 93.7124C513.424 93.703 514.034 94.3084 514.044 96.5124L514.065 101.528C514.075 103.732 513.469 104.343 511.265 104.352L492.722 104.432C490.518 104.441 489.907 103.836 489.898 101.632L489.677 50.2564C489.668 48.0524 490.273 47.4418 492.477 47.4323L497.341 47.4115C499.545 47.402 500.156 48.0074 500.165 50.2114L500.347 92.543Z" fill="#DEE778"/>
<path d="M560.102 106.116C559.758 108.293 559.063 108.798 556.886 108.454L552.081 107.694C549.904 107.35 549.399 106.655 549.743 104.478L552.782 85.2604C553.304 81.9575 553.668 80.63 555.043 77.7697L565.495 55.9543C566.894 52.9439 567.739 52.4621 571.643 53.0793L574.345 53.5066C578.249 54.1238 578.905 54.843 579.307 58.1383L582.518 82.114C582.956 85.184 582.88 86.6341 582.358 89.937L579.319 109.154C578.975 111.331 578.28 111.837 576.103 111.493L571.299 110.733C569.122 110.389 568.616 109.693 568.96 107.516L570.527 97.6074C570.693 96.5564 570.44 96.2087 569.389 96.0425L563.234 95.0692C562.183 94.903 561.835 95.1558 561.669 96.2068L560.102 106.116ZM571.276 85.5687C572.102 85.6993 572.6 85.4702 572.707 84.7946C572.766 84.4193 572.75 84.0321 572.735 83.6448L571.572 68.6108C571.541 67.8364 571.415 67.6626 570.739 67.5557C570.063 67.4489 569.89 67.5753 569.621 68.3022L563.877 82.2442C563.742 82.6077 563.608 82.9712 563.549 83.3465C563.442 84.0221 563.845 84.3936 564.67 84.5242L571.276 85.5687Z" fill="#DEE778"/>
<path d="M629.775 113.662C629.49 114.528 629.684 114.912 630.695 115.245L639.718 118.214C641.812 118.903 642.2 119.671 641.511 121.764L639.943 126.529C639.254 128.623 638.486 129.01 636.392 128.321L618.778 122.524C616.684 121.835 616.297 121.068 616.986 118.974L633.046 70.1728C633.735 68.0793 634.502 67.6918 636.596 68.3808L641.216 69.9013C643.31 70.5902 643.697 71.3578 643.008 73.4514L629.775 113.662Z" fill="#DEE778"/>
<path d="M702.734 108.616L698.811 116.17C698.355 117.047 698.45 117.524 699.394 118.014L707.757 122.358C709.713 123.374 709.973 124.194 708.957 126.15L706.645 130.601C705.629 132.557 704.809 132.816 702.988 131.87L694.49 127.457C693.546 126.966 693.136 127.096 692.645 128.04L687.531 137.887C687.075 138.764 687.17 139.241 688.114 139.732L697.287 144.496C699.243 145.512 699.502 146.332 698.486 148.287L696.174 152.739C695.158 154.695 694.339 154.954 692.383 153.938L675.184 145.005C673.228 143.99 672.969 143.17 673.985 141.214L697.665 95.6208C698.681 93.6649 699.501 93.4055 701.457 94.4214L718.655 103.354C720.611 104.37 720.871 105.19 719.855 107.146L717.543 111.597C716.527 113.553 715.707 113.812 713.751 112.796L704.579 108.032C703.634 107.542 703.224 107.672 702.734 108.616Z" fill="#DEE778"/>
<path d="M760.559 179.566C752.887 189.867 747.192 191.406 738.354 184.824C729.516 178.241 729.359 172.344 737.031 162.043L751.104 143.148C758.73 132.908 764.471 131.308 773.309 137.89C782.147 144.472 782.258 150.43 774.632 160.671L760.559 179.566ZM744.143 170.562C742.327 173 742.576 174.701 744.71 176.29C746.843 177.879 748.545 177.63 750.36 175.192L767.293 152.457C769.29 149.775 769.087 148.012 766.953 146.423C764.82 144.835 763.073 145.144 761.076 147.826L744.143 170.562Z" fill="#DEE778"/>
<path d="M856.443 265.834L854.821 266.963C850.705 269.831 847.32 269.225 844.453 265.109L843.323 263.488C840.586 259.559 841.105 256.049 845.221 253.182L846.842 252.052C850.771 249.315 854.368 249.959 857.105 253.887L858.234 255.509C861.102 259.625 860.371 263.097 856.443 265.834Z" fill="#DEE778"/>
<path d="M894.113 384.756L915.939 378.333L914.577 373.705L917.731 372.777L919.093 377.404L920.751 376.916C922.393 376.433 923.939 376.329 925.387 376.603C926.84 376.892 928.093 377.524 929.147 378.498C930.205 379.488 930.97 380.781 931.439 382.377L931.954 384.127L928.616 385.109L928.101 383.359C927.69 381.963 926.902 380.985 925.737 380.428C924.572 379.87 923.238 379.812 921.733 380.255L920.076 380.743L921.939 387.074L918.785 388.003L916.921 381.671L895.095 388.095L894.113 384.756Z" fill="#DEE778"/>
<path d="M907.356 446.69L933.192 443.44L933.627 446.893L929.912 447.36L930.551 446.675C931.691 447.144 932.609 447.843 933.307 448.771C934.004 449.7 934.435 450.823 934.601 452.14L934.742 453.259L931.289 453.694L931.058 451.86C930.885 450.479 930.316 449.422 929.353 448.688C928.392 447.97 927.189 447.703 925.745 447.884L907.79 450.142L907.356 446.69Z" fill="#DEE778"/>
<path d="M910.145 516.091C910.204 514.46 910.607 513.042 911.355 511.836C912.103 510.63 913.121 509.698 914.41 509.04C915.714 508.383 917.214 508.084 918.909 508.145L929.198 508.516C930.861 508.576 932.312 508.98 933.549 509.729C934.803 510.479 935.76 511.482 936.419 512.738C937.094 513.995 937.403 515.44 937.344 517.07C937.256 519.517 936.409 521.464 934.804 522.911C933.199 524.358 931.133 525.036 928.607 524.945L918.317 524.575C915.791 524.484 913.771 523.659 912.259 522.099C910.762 520.54 910.057 518.538 910.145 516.091ZM913.623 516.216C913.571 517.671 913.977 518.831 914.843 519.695C915.708 520.574 916.868 521.04 918.323 521.093L928.852 521.472C930.307 521.524 931.489 521.142 932.399 520.327C933.325 519.527 933.814 518.4 933.866 516.945C933.918 515.49 933.512 514.315 932.648 513.419C931.8 512.524 930.648 512.05 929.193 511.998L918.664 511.619C917.209 511.566 916.018 511.956 915.092 512.787C914.165 513.618 913.676 514.761 913.623 516.216Z" fill="#DEE778"/>
<path d="M905.408 569.873L930.944 574.972L930.263 578.385L926.873 577.708L927.716 577.289C928.635 578.076 929.281 579.013 929.651 580.098C930.019 581.2 930.071 582.409 929.808 583.727C929.488 585.328 928.801 586.643 927.747 587.672C926.693 588.702 925.325 589.301 923.643 589.471L923.902 588.666C925.264 589.444 926.259 590.467 926.887 591.734C927.512 593.017 927.663 594.467 927.34 596.083C927.064 597.464 926.514 598.627 925.689 599.571C924.864 600.516 923.802 601.177 922.503 601.554C921.217 601.95 919.75 601.983 918.102 601.654L899.792 597.998L900.473 594.585L918.431 598.171C919.859 598.456 921.086 598.277 922.111 597.633C923.15 597.009 923.802 596.029 924.069 594.696C924.341 593.331 924.121 592.145 923.409 591.138C922.708 590.149 921.645 589.513 920.217 589.228L902.259 585.642L902.941 582.229L920.898 585.815C922.326 586.1 923.553 585.921 924.579 585.277C925.617 584.653 926.27 583.673 926.536 582.34C926.809 580.975 926.589 579.789 925.876 578.782C925.176 577.793 924.112 577.157 922.684 576.871L904.727 573.286L905.408 569.873Z" fill="#DEE778"/>
<path d="M854.836 707.531C855.519 706.336 856.349 705.447 857.328 704.864C858.298 704.294 859.364 704.01 860.525 704.01L860.906 704.891L857.968 703.212L859.695 700.191L890.949 718.057L889.222 721.078L877.637 714.456L878.611 714.349C879.186 715.341 879.475 716.4 879.476 717.525C879.484 718.672 879.147 719.843 878.464 721.037C877.757 722.274 876.844 723.226 875.725 723.895C874.597 724.577 873.325 724.901 871.908 724.865C870.505 724.837 869.026 724.378 867.47 723.489L858.323 718.26C856.753 717.362 855.593 716.312 854.844 715.11C854.094 713.907 853.727 712.647 853.743 711.329C853.765 710.033 854.129 708.767 854.836 707.531ZM858.179 708.695C857.44 709.987 857.253 711.216 857.618 712.383C857.975 713.564 858.786 714.516 860.05 715.239L869.197 720.467C870.461 721.19 871.685 721.402 872.87 721.102C874.061 720.824 875.022 720.047 875.752 718.769C876.491 717.477 876.673 716.254 876.301 715.101C875.942 713.956 875.13 713.022 873.866 712.3L864.698 707.059C863.434 706.336 862.211 706.107 861.028 706.371C859.859 706.642 858.909 707.417 858.179 708.695Z" fill="#DEE778"/>
<path d="M821.601 757.196L841.842 773.578L839.653 776.283L836.743 773.928L837.68 773.914C838.13 775.061 838.263 776.208 838.076 777.354C837.89 778.5 837.379 779.589 836.543 780.621L835.834 781.498L833.129 779.308L834.291 777.872C835.167 776.79 835.536 775.648 835.398 774.445C835.25 773.255 834.61 772.201 833.478 771.285L819.412 759.901L821.601 757.196Z" fill="#DEE778"/>
<path d="M773.106 807.618C774.896 806.019 776.722 805.278 778.586 805.394C780.449 805.51 782.057 806.325 783.411 807.84C784.254 808.783 784.779 809.719 784.987 810.649C785.206 811.59 785.223 812.498 785.038 813.371C784.841 814.255 784.545 815.088 784.15 815.871C783.689 816.819 783.157 817.713 782.555 818.552C781.951 819.413 781.412 820.227 780.939 820.993C780.476 821.772 780.202 822.51 780.117 823.208C780.033 823.906 780.273 824.571 780.838 825.203L781.254 825.668C782.224 826.754 783.33 827.332 784.573 827.402C785.814 827.494 786.972 827.06 788.045 826.101C789.131 825.131 789.692 824.029 789.727 822.796C789.761 821.585 789.293 820.437 788.323 819.352L787.843 818.815L790.438 816.496L790.838 816.943C792.522 818.828 793.321 820.851 793.233 823.01C793.146 825.169 792.19 827.065 790.364 828.696C789.159 829.773 787.858 830.453 786.459 830.737C785.059 831.044 783.676 830.96 782.309 830.487C780.942 830.013 779.698 829.15 778.579 827.898L766.457 814.333L769.052 812.014L771.451 814.698L770.51 814.509C770.238 813.293 770.317 812.096 770.745 810.919C771.174 809.742 771.961 808.642 773.106 807.618ZM774.776 810.568C773.559 811.655 772.909 812.848 772.825 814.146C772.751 815.457 773.285 816.75 774.425 818.027L777.496 821.463C777.818 820.359 778.352 819.324 779.098 818.357C779.854 817.403 780.515 816.426 781.081 815.426C781.584 814.548 781.871 813.68 781.942 812.823C782.023 811.978 781.707 811.155 780.992 810.356C780.214 809.485 779.264 809.047 778.143 809.04C777.032 809.046 775.91 809.555 774.776 810.568Z" fill="#DEE778"/>
<path d="M726.122 844.5L727.595 846.806L728.592 871.339L727.156 870.605L738.019 863.67L739.891 866.604L726.762 874.985L725.303 872.699L724.158 848.202L725.628 848.944L714.866 855.814L712.993 852.881L726.122 844.5Z" fill="#DEE778"/>
<path d="M664.37 877.941L674.68 901.853L671.484 903.231L661.175 879.319L664.37 877.941ZM675.829 904.52L678.053 909.677L674.857 911.055L672.634 905.898L675.829 904.52Z" fill="#DEE778"/>
<path d="M601.826 899.417L610.591 934.333L607.216 935.181L598.451 900.264L601.826 899.417Z" fill="#DEE778"/>
<path d="M461.552 910.172C464.025 910.361 465.952 911.295 467.332 912.973C468.695 914.665 469.275 916.836 469.073 919.484L467.977 933.818L472.644 934.175L472.393 937.453L467.727 937.097L467.228 943.63L463.758 943.365L464.257 936.832L457.796 936.338L458.046 933.059L464.508 933.553L465.603 919.219C465.724 917.64 465.39 916.338 464.601 915.315C463.812 914.308 462.707 913.75 461.287 913.642L459.54 913.508L459.806 910.039L461.552 910.172Z" fill="#DEE778"/>
<path d="M403.577 900.12C405.163 900.504 406.472 901.183 407.504 902.157C408.536 903.131 409.246 904.315 409.633 905.709C410.016 907.119 410.008 908.648 409.609 910.296L407.188 920.304C406.797 921.921 406.11 923.261 405.129 924.324C404.144 925.403 402.97 926.139 401.607 926.534C400.24 926.944 398.763 926.957 397.177 926.573C394.798 925.998 393.06 924.779 391.963 922.917C390.866 921.054 390.615 918.895 391.209 916.438L393.63 906.43C394.225 903.973 395.437 902.16 397.268 900.989C399.095 899.834 401.198 899.545 403.577 900.12ZM402.759 903.503C401.343 903.161 400.126 903.327 399.107 904.002C398.072 904.674 397.383 905.717 397.041 907.132L394.563 917.373C394.221 918.788 394.358 920.023 394.976 921.078C395.574 922.144 396.58 922.849 397.995 923.191C399.411 923.533 400.643 923.371 401.694 922.703C402.741 922.051 403.435 921.017 403.778 919.602L406.255 909.361C406.597 907.946 406.454 906.702 405.825 905.628C405.196 904.553 404.174 903.845 402.759 903.503Z" fill="#DEE778"/>
<path d="M275.957 845.431C278.058 846.748 279.33 848.47 279.773 850.597C280.193 852.729 279.698 854.921 278.288 857.172L270.657 869.355L274.623 871.839L272.877 874.626L268.911 872.142L265.433 877.694L262.484 875.847L265.962 870.294L260.47 866.854L262.216 864.068L267.707 867.508L275.339 855.324C276.18 853.982 276.489 852.675 276.266 851.403C276.035 850.144 275.316 849.137 274.109 848.381L272.625 847.451L274.472 844.501L275.957 845.431Z" fill="#DEE778"/>
<path d="M234.856 815.241L211.099 842.29L208.485 839.993L217.306 829.949L217.248 830.888C216.117 831.279 214.989 831.364 213.863 831.142C212.726 830.909 211.646 830.344 210.624 829.447C209.59 828.539 208.871 827.491 208.465 826.305C208.037 825.119 207.979 823.876 208.291 822.574C208.592 821.263 209.307 819.963 210.437 818.677L222.774 804.63L225.389 806.926L213.289 820.703C212.318 821.809 211.854 822.967 211.898 824.177C211.931 825.377 212.458 826.426 213.48 827.323C214.526 828.242 215.657 828.65 216.875 828.549C218.081 828.437 219.17 827.827 220.141 826.721L232.241 812.945L234.856 815.241Z" fill="#DEE778"/>
<path d="M183.288 762.086C184.326 763.346 184.964 764.675 185.204 766.073C185.444 767.472 185.3 768.845 184.772 770.192C184.231 771.549 183.307 772.767 181.997 773.845L174.05 780.391C172.766 781.449 171.412 782.108 169.989 782.368C168.553 782.638 167.172 782.522 165.845 782.018C164.506 781.525 163.318 780.649 162.28 779.389C160.724 777.499 160.067 775.481 160.309 773.333C160.55 771.185 161.647 769.308 163.598 767.701L167.989 764.085L176.671 774.625L174.077 776.762L167.608 768.907L165.718 770.463C164.594 771.389 163.962 772.459 163.822 773.673C163.659 774.885 164.041 776.052 164.967 777.176C165.892 778.3 166.976 778.911 168.216 779.008C169.445 779.116 170.621 778.706 171.745 777.781L179.878 771.082C181.002 770.157 181.635 769.076 181.777 767.839C181.919 766.602 181.528 765.422 180.602 764.298C179.676 763.175 178.603 762.576 177.383 762.504C176.152 762.419 174.975 762.839 173.851 763.765L173.388 764.146L171.175 761.46L171.546 761.155C173.497 759.548 175.556 758.826 177.722 758.99C179.876 759.164 181.732 760.196 183.288 762.086Z" fill="#DEE778"/>
<path d="M118.562 653.988L95.7425 667.202L94.4429 663.819L114.147 653.139L114.292 653.649L92.0588 657.613L90.8797 654.544L110.049 642.604L110.274 643.057L88.5043 648.361L87.1961 644.955L112.993 639.493L114.405 643.167L97.1554 654.216L96.9144 653.588L117.141 650.291L118.562 653.988Z" fill="#DEE778"/>
<path d="M98.4039 585.084C98.7372 586.681 98.6851 588.155 98.2475 589.505C97.81 590.854 97.0444 592.003 95.9508 592.95C94.8416 593.901 93.4568 594.549 91.7965 594.896L81.7175 596.998C80.0886 597.338 78.5836 597.293 77.2024 596.862C75.8057 596.434 74.6369 595.689 73.6961 594.627C72.7397 593.568 72.0948 592.239 71.7615 590.642C71.2616 588.245 71.6177 586.152 72.8298 584.363C74.042 582.574 75.8854 581.421 78.3601 580.905L88.4391 578.802C90.9138 578.286 93.0722 578.604 94.9143 579.756C96.7408 580.911 97.904 582.687 98.4039 585.084ZM94.9973 585.794C94.6999 584.369 94.0277 583.34 92.9807 582.709C91.9304 582.062 90.6926 581.887 89.2673 582.184L78.9533 584.336C77.528 584.633 76.4712 585.287 75.783 586.297C75.0758 587.294 74.8708 588.506 75.1682 589.931C75.4655 591.356 76.141 592.4 77.1945 593.063C78.2325 593.729 79.4641 593.914 80.8894 593.616L91.2033 591.465C92.6286 591.167 93.6916 590.504 94.3923 589.475C95.093 588.447 95.2946 587.22 94.9973 585.794Z" fill="#DEE778"/>
<path d="M89.7421 522.973L63.728 524.133L63.5729 520.656L67.3132 520.49L66.6207 521.121C65.5226 520.562 64.6635 519.791 64.0431 518.81C63.4228 517.828 63.083 516.674 63.0239 515.348L62.9736 514.221L66.4502 514.066L66.5325 515.912C66.5945 517.303 67.076 518.402 67.9769 519.211C68.8771 520.004 70.0545 520.367 71.509 520.303L89.5871 519.496L89.7421 522.973Z" fill="#DEE778"/>
<path d="M91.7683 455.262L56.0125 451.076L56.4172 447.62L92.173 451.806L91.7683 455.262Z" fill="#DEE778"/>
<path d="M105.785 387.748C105.395 389.117 104.742 390.27 103.826 391.207C102.899 392.124 101.743 392.735 100.359 393.039C98.9747 393.343 97.4131 393.247 95.6744 392.752L85.5419 389.864C83.8185 389.373 82.4565 388.635 81.4559 387.651C80.4399 386.663 79.7798 385.535 79.4757 384.267C79.176 382.984 79.2212 381.657 79.6116 380.288C79.9887 378.964 80.588 377.912 81.4095 377.132C82.2199 376.331 83.1811 375.79 84.293 375.508L84.8968 376.279L72.0638 372.621L73.0177 369.275L107.639 379.142L106.685 382.489L103.431 381.561L104.327 381.218C105.139 382.048 105.678 383.017 105.944 384.124C106.215 385.217 106.162 386.424 105.785 387.748ZM102.616 386.171C103.02 384.755 102.91 383.534 102.287 382.508C101.649 381.478 100.63 380.763 99.23 380.364L89.0744 377.47C87.6742 377.07 86.4369 377.15 85.3626 377.709C84.2772 378.248 83.5328 379.226 83.1293 380.642C82.7259 382.057 82.8387 383.296 83.468 384.357C84.0862 385.398 85.0955 386.118 86.4957 386.517L96.6282 389.405C98.0285 389.804 99.2734 389.727 100.363 389.172C101.457 388.602 102.208 387.602 102.616 386.171Z" fill="#DEE778"/>
</g>
<defs>
<clipPath id="clip0_1_2">
<rect width="1000" height="1000" rx="500" fill="white"/>
</clipPath>
</defs>
</svg>
