<svg width="500" height="500" viewBox="0 0 500 500" fill="none" xmlns="http://www.w3.org/2000/svg">
<rect width="500" height="500" fill="none"/>
<rect width="500" height="500" rx="250" fill="white"/>
<path d="M188.529 343.5C188.129 345.1 189.029 346.5 189.529 347C192.863 349.5 200.129 354.3 202.529 353.5C205.529 352.5 207.029 349.5 206.529 347.5C206.029 345.5 203.529 343 200.529 342.5C197.529 342 193.529 340 192.029 340C190.529 340 189.029 341.5 188.529 343.5Z" fill="white" stroke="black" stroke-width="2" stroke-linecap="round" stroke-linejoin="round"/>
<path d="M184.029 350.5C182.829 349.7 183.196 348.833 183.529 348.5C183.863 347.667 184.629 345.8 185.029 345C185.529 344 185.529 344.5 187.029 344.5C188.529 344.5 205.529 353 206.529 353.5C207.529 354 208.029 355 208.029 356C208.029 357 206.529 360 204.529 360C202.529 360 185.529 351.5 184.029 350.5Z" fill="white" stroke="black" stroke-width="2" stroke-linecap="round" stroke-linejoin="round"/>
<path d="M292.029 289.5C292.696 292.667 294.229 299.8 295.029 303C296.029 307 295.029 311.5 293.529 314.5C292.029 317.5 281.029 334 258.529 355" stroke="black" stroke-width="2" stroke-linecap="round" stroke-linejoin="round"/>
<path d="M251.529 357L253.529 359.5L261.529 364.5C263.696 364.333 268.029 363.3 268.029 360.5C268.029 357 265.029 357 262.029 356.5C259.029 356 256.529 354 253.529 354C251.129 354 251.196 356 251.529 357Z" fill="white" stroke="black" stroke-width="2" stroke-linecap="round" stroke-linejoin="round"/>
<path d="M246.529 361.5L249.029 356.5C253.863 358 264.529 361.9 268.529 365.5L269.529 366.5C268.863 368.167 267.329 371.4 266.529 371C265.529 370.5 249.029 364 247.529 363C246.329 362.2 246.363 361.667 246.529 361.5Z" fill="white" stroke="black" stroke-width="2" stroke-linecap="round" stroke-linejoin="round"/>
<path d="M243.029 266.5C246.229 264.5 249.696 265 251.029 265.5L272.029 272.5C273.696 274.167 276.429 279.2 274.029 286C271.029 294.5 264.529 312 262.029 319C259.529 326 254.529 339 253.029 342.5C251.529 346 250.029 351 249.029 351.5C248.029 352 246.529 351.5 246.529 350C246.529 348.5 248.029 345.5 250.029 339.5C252.029 333.5 256.529 320 259.529 310.5C262.529 301 267.029 284.5 267.529 283.5C268.029 282.5 268.529 279 264.529 277.5C260.529 276 259.529 275.5 254.529 274C249.529 272.5 247.529 274.5 245.529 276.5C243.529 278.5 233.529 308.5 231.529 314C229.529 319.5 222.529 341 222.029 342C221.529 343 219.029 343 218.029 341.5C217.029 340 217.529 338 218.029 336.5C218.529 335 222.029 325 223.029 321.5C224.029 318 228.529 306 231.529 295.5C234.529 285 239.029 271 239.529 270C240.029 269 239.029 269 243.029 266.5Z" fill="#D9D9D9" stroke="black" stroke-width="2" stroke-linecap="round" stroke-linejoin="round"/>
<path d="M238.529 121.5L224.029 122C222.363 121.667 218.129 120.8 214.529 120C210.029 119 198.029 117 196.029 117C194.029 117 193.029 116 189.029 117C185.029 118 188.029 120 189.029 120C190.029 120 209.529 119 214.529 121.5C218.529 123.5 221.529 123.667 222.529 123.5C220.029 124 214.129 124.7 210.529 123.5C206.029 122 190.529 124.5 184.529 127C178.529 129.5 172.529 125.5 173.029 125C173.529 124.5 182.029 127 191.029 126.5C200.029 126 210.529 127 219.029 129C227.529 131 239.529 129 241.529 127" stroke="black" stroke-width="2" stroke-linecap="round" stroke-linejoin="round"/>
<path d="M245.029 127C249.029 131 273.529 182.9 273.529 216.5" stroke="black" stroke-width="2" stroke-linecap="round" stroke-linejoin="round"/>
<path d="M241.529 128.5C233.696 132.167 216.529 141 210.529 147C203.029 154.5 205.529 159 206.029 162.5C206.529 166 215.529 180.5 214.529 188.5" stroke="black" stroke-width="2" stroke-linecap="round" stroke-linejoin="round"/>
<path d="M251.029 126.5C266.529 136.333 295.529 156 299.029 159C302.029 161 306.029 163.5 308.029 173C310.029 182.5 320.529 217.5 321.529 220.5M255.529 224.5L269.029 226L266.529 221C263.696 219.5 257.129 216.2 253.529 215C249.029 213.5 246.529 212.5 243.529 211.5C240.529 210.5 238.029 204 236.529 202.5C235.029 201 231.529 197.5 222.529 195.5C215.329 193.9 210.863 191.167 209.529 190C208.696 189.667 206.829 189.4 206.029 191C205.029 193 205.029 193 205.529 193.5C206.029 194 206.029 193.5 207.029 194.5C207.829 195.3 216.029 197.833 220.029 199C222.029 199.5 226.429 200.9 228.029 202.5C230.029 204.5 233.029 213 236.529 216.5C239.329 219.3 250.363 223 255.529 224.5ZM277.529 229.5L279.529 225.5H282.029C286.529 227.5 295.829 231.5 297.029 231.5C298.229 231.5 302.863 232.833 305.029 233.5C307.696 233.333 314.029 232.5 318.029 230.5C323.029 228 324.529 229.5 326.529 230.5C328.129 231.3 338.196 234.833 343.029 236.5C343.863 237 345.529 238.2 345.529 239C345.529 240 345.529 241.5 343.029 243C341.029 244.2 339.529 242.5 339.029 241.5L328.029 237C327.029 236.5 324.729 235.5 323.529 235.5C322.029 235.5 315.029 240 308.529 240.5C303.329 240.9 285.696 233.333 277.529 229.5Z" stroke="black" stroke-width="2" stroke-linecap="round" stroke-linejoin="round"/>
<path d="M228.529 216C230.129 216 237.529 217 241.029 217.5C244.029 217.918 250.529 220 257.529 221C263.129 221.8 286.863 230.667 298.029 235C299.029 235 301.429 235.2 303.029 236C305.029 237 312.029 241 313.529 242C315.029 243 316.029 243 316.529 247C320.029 267 302.029 286 301.029 287C300.029 288 298.029 287.5 297.529 286.5C297.129 285.7 293.029 283.833 291.029 283C289.529 282.5 285.929 281.2 283.529 280C280.529 278.5 272.529 275.5 268.029 274C263.529 272.5 257.529 268 252.029 267C247.629 266.2 238.196 264 234.029 263C233.196 262.833 231.029 262.2 229.029 261C226.529 259.5 221.029 259 218.029 258.5C215.029 258 214.529 260 213.529 257C208.529 236.5 222.029 220 224.029 217.5C226.029 215 226.529 216 228.529 216Z" fill="white" stroke="black" stroke-width="2" stroke-linecap="round" stroke-linejoin="round"/>
<path d="M296.029 227.5L293.529 230.5C294.532 230.877 296.586 231.567 296.783 231.315C298.625 236.429 296.78 238.948 294.529 252C292.621 263.066 286.922 275.011 283.941 280.284L280.029 278.5C279.529 281 285.529 285 287.029 285C288.529 285 291.029 283.5 292.529 280.5C294.029 277.5 300.029 264 302.029 258.5C304.029 253 306.529 236.5 304.529 232C302.929 228.4 298.196 227.5 296.029 227.5Z" fill="#D9D9D9"/>
<path d="M283.529 281C283.66 280.777 283.797 280.538 283.941 280.284M296.029 229.5C296.329 230.149 296.578 230.748 296.783 231.315M296.783 231.315C298.625 236.429 296.78 238.948 294.529 252C292.621 263.066 286.922 275.011 283.941 280.284M296.783 231.315C296.586 231.567 294.532 230.877 293.529 230.5L296.029 227.5C298.196 227.5 302.929 228.4 304.529 232C306.529 236.5 304.029 253 302.029 258.5C300.029 264 294.029 277.5 292.529 280.5C291.029 283.5 288.529 285 287.029 285C285.529 285 279.529 281 280.029 278.5L283.941 280.284" stroke="black" stroke-width="2" stroke-linecap="round" stroke-linejoin="round"/>
<path d="M246.529 211C247.529 210.5 251.529 209.5 254.529 212.5C255.897 213.868 256.355 215.084 256.404 216L252.029 214.5C249.529 216.5 246.529 221 245.029 223.5C243.529 226 239.029 234 235.529 242.5C232.729 249.3 233.363 259 234.029 263L237.029 264C235.529 266.5 230.529 266 229.029 264.5C227.529 263 227.029 258 227.029 253.5C227.029 249 229.529 236.5 232.529 231C235.529 225.5 245.529 211.5 246.529 211Z" fill="#D9D9D9"/>
<path d="M234.029 263L237.029 264C235.529 266.5 230.529 266 229.029 264.5C227.529 263 227.029 258 227.029 253.5C227.029 249 229.529 236.5 232.529 231C235.529 225.5 245.529 211.5 246.529 211C247.529 210.5 251.529 209.5 254.529 212.5C255.897 213.868 256.355 215.084 256.404 216L252.029 214.5M234.029 263C233.363 259 232.729 249.3 235.529 242.5C239.029 234 243.529 226 245.029 223.5C246.529 221 249.529 216.5 252.029 214.5M234.029 263L234.529 264M252.029 214.5L253.029 213.5" stroke="black" stroke-width="2" stroke-linecap="round" stroke-linejoin="round"/>
<path d="M268.029 220C266.029 221.2 266.196 223.167 266.529 224L279.029 229C280.196 228.667 282.329 227.4 281.529 225C280.529 222 270.529 218.5 268.029 220Z" stroke="black" stroke-width="2" stroke-linecap="round" stroke-linejoin="round"/>
<path d="M222.029 189C225.029 189 228.529 192 230.029 194C230.363 194.833 230.829 197.2 230.029 198C227.637 196.405 223.912 195.506 221.837 195.005L221.816 195C219.724 197.529 217.887 202.428 215.029 203.5C211.029 205 208.529 204.5 206.029 202C203.529 199.5 209.029 191 210.029 190C210.829 189.2 211.696 189 212.029 189H222.029Z" fill="white"/>
<path d="M224.529 193.5C223.53 193.357 222.653 193.989 221.816 195M221.816 195C219.724 197.529 217.887 202.428 215.029 203.5C211.029 205 208.529 204.5 206.029 202C203.529 199.5 209.029 191 210.029 190C210.829 189.2 211.696 189 212.029 189C214.363 189 219.629 189 222.029 189C225.029 189 228.529 192 230.029 194C230.363 194.833 230.829 197.2 230.029 198C227.629 196.4 223.887 195.5 221.816 195Z" stroke="black" stroke-width="2" stroke-linecap="round" stroke-linejoin="round"/>
<path d="M213.029 87.5C213.029 89.1 217.029 92.1667 219.029 93.5C227.696 90.3333 245.429 83.8 247.029 83C249.029 82 251.029 79 250.029 76C249.029 73 247.529 72 244.529 69C241.529 66 238.029 64 237.529 64C237.029 64 236.529 64 236.029 64.5C220.029 65 218.029 71 217.029 71C214.529 71 214.029 72.5 213.529 75C213.029 77.5 213.029 85.5 213.029 87.5Z" fill="#D9D9D9" stroke="black" stroke-width="2" stroke-linejoin="round"/>
<path d="M215.029 73C216.196 73.6667 218.829 74.9 220.029 74.5C221.529 74 221.029 70.5 221.029 69M230.529 65.5C231.363 67 233.429 70 235.029 70C237.029 70 235.529 64.5 236.029 64.5M232.529 85C231.952 84.8178 231.267 84.5825 230.529 84.3049M230.529 84.3049C227.219 83.0592 222.856 80.9627 222.529 79C222.029 76 224.529 78 225.529 79C226.529 80 228.529 82.6099 230.529 84.3049ZM237.029 83.5C237.367 83.0499 237.77 82.4581 238.184 81.7746M238.184 81.7746C239.607 79.4207 241.149 75.9799 240.529 73.5C239.529 69.5 238.529 73.5 238.529 75.5C238.529 77.1 238.299 80.3497 238.184 81.7746Z" stroke="black" stroke-opacity="0.5" stroke-width="2" stroke-linecap="round" stroke-linejoin="round"/>
<path d="M219.529 95.5C218.363 92.8333 218.229 87.6 227.029 88C235.09 88.3664 242.648 83.4464 246.166 80.3116C246.787 82.8744 248.529 88.4 250.529 90C253.029 92 255.529 95.5 255.029 102C254.529 108.5 254.529 111 254.029 115C253.529 119 249.029 122.5 244.529 123C240.029 123.5 233.529 117 227.029 111C220.529 105 221.529 101 221.529 99C221.529 97.4 220.196 96 219.529 95.5Z" fill="white"/>
<path d="M247.029 79.5C246.777 79.7519 246.489 80.0243 246.166 80.3116M246.166 80.3116C242.648 83.4464 235.09 88.3664 227.029 88C218.229 87.6 218.363 92.8333 219.529 95.5C220.196 96 221.529 97.4 221.529 99C221.529 101 220.529 105 227.029 111C233.529 117 240.029 123.5 244.529 123C249.029 122.5 253.529 119 254.029 115C254.529 111 254.529 108.5 255.029 102C255.529 95.5 253.029 92 250.529 90C248.529 88.4 246.787 82.8744 246.166 80.3116Z" stroke="black" stroke-width="2" stroke-linecap="round" stroke-linejoin="round"/>
<path d="M238.529 91.5C239.529 93 242.229 96.7 245.029 99.5C248.529 103 241.029 108 240.529 107.5M237.029 112.5C237.863 112.167 240.129 111.5 242.529 111.5" stroke="black" stroke-width="2" stroke-linecap="round" stroke-linejoin="round"/>
<path d="M320.029 224.5C318.829 226.1 320.196 228.167 321.029 229C321.696 228.833 323.329 228.7 324.529 229.5C325.729 230.3 326.544 230.5 326.801 230.5C326.946 231.114 327.029 231.786 327.029 232.5C327.029 236 330.529 240 333.529 241.5C336.529 243 337.529 243 339.529 241.5C341.529 240 344.529 237 342.529 232.5C340.529 228 338.029 229 336.029 227.5C334.029 226 330.529 222.5 326.529 222C322.529 221.5 321.529 222.5 320.029 224.5Z" fill="white"/>
<path d="M323.529 227C324.723 226.602 326.234 228.105 326.801 230.5M326.801 230.5C326.946 231.114 327.029 231.786 327.029 232.5C327.029 236 330.529 240 333.529 241.5C336.529 243 337.529 243 339.529 241.5C341.529 240 344.529 237 342.529 232.5C340.529 228 338.029 229 336.029 227.5C334.029 226 330.529 222.5 326.529 222C322.529 221.5 321.529 222.5 320.029 224.5C318.829 226.1 320.196 228.167 321.029 229C321.696 228.833 323.329 228.7 324.529 229.5C325.729 230.3 326.544 230.5 326.801 230.5Z" stroke="black" stroke-width="2" stroke-linecap="round" stroke-linejoin="round"/>
<path d="M202.029 417.5C203.583 412.061 205.029 406.167 206.029 404C208.196 397.667 213.429 382.5 217.029 372.5C221.529 360 222.529 355.5 227.029 342C231.529 328.5 242.529 298 244.529 292C246.529 286 247.029 281.5 250.529 279C254.029 276.5 260.029 280 260.529 280.5C261.029 281 261.029 286.5 260.529 287.5C260.029 288.5 260.529 289.5 256.529 301C252.529 312.5 240.529 351 238.029 358C235.529 365 223.029 404 220.529 410C218.029 416 213.029 429 211.529 429H205.529C203.929 429 202.529 428 202.029 427.5C199.529 425.5 201.029 421 202.029 417.5Z" fill="black" stroke="black" stroke-width="2" stroke-linecap="round" stroke-linejoin="round"/>
<path d="M220.029 266C215.363 268.667 205.229 274.6 202.029 277C198.029 280 196.529 283.5 196.529 289.5C196.529 295.5 195.529 315 199.529 341.5" stroke="black" stroke-width="2" stroke-linecap="round" stroke-linejoin="round"/>
<path d="M336.062 429.754C328.939 429.754 321.815 429.754 314.692 429.754C311.024 429.754 307.347 429.834 303.68 429.743C302.281 429.709 300.977 429.438 299.604 429.211C295.133 428.47 290.619 428.007 286.104 427.646C275.589 426.804 265.023 426.232 254.472 426.232C249.027 426.232 243.677 427.015 238.221 427.015C233.732 427.015 229.242 426.977 224.753 427.015C223.142 427.029 221.822 427.307 220.275 427.689C218.706 428.077 217.136 428.047 215.557 428.298C214 428.545 213.368 429.461 214.036 431.08C215.144 433.769 218.334 435.248 220.949 435.928C223.32 436.545 226.773 436.901 229.167 436.059C231.085 435.384 232.775 434.201 234.645 433.417C235.736 432.961 236.879 432.723 237.971 432.298C238.447 432.113 239.732 431.126 239.58 431.124C234.248 431.041 228.777 431.579 223.471 431.026C222.104 430.884 220.795 430.788 219.775 431.961C219.527 432.246 225.034 432.298 225.297 432.298C230.884 432.298 236.471 432.298 242.058 432.298C245.354 432.298 248.645 432.301 251.939 432.396C254.872 432.48 257.775 432.566 260.69 432.928C265.899 433.576 271.001 434.827 276.234 435.298C280.654 435.696 285.207 436.355 289.647 436.407C290.957 436.422 292.375 436.258 293.604 435.776C294.398 435.465 295.334 434.138 294.691 433.254C293.638 431.806 290.219 431.762 288.799 431.646C283.501 431.212 278.154 431.32 272.842 431.32C269.313 431.32 265.91 431.121 262.407 430.613C258.689 430.074 255.063 429.495 251.298 429.57C247.417 429.646 243.576 429.95 239.678 429.95C237.448 429.95 235.241 429.205 233.036 429.363C231.681 429.46 235.657 430.086 236.982 430.385C242.949 431.73 249.065 432.609 255.124 433.428C262.563 434.434 269.81 433.69 277.255 433.668C284.279 433.646 291.437 434.15 298.408 435.015C301.351 435.38 304.114 435.82 307.072 435.82C308.219 435.82 308.092 434.564 307.148 434.168C304.027 432.856 299.79 433.485 296.539 433.45C289.999 433.38 283.476 433.135 276.951 432.7C276.343 432.66 272.297 431.956 272.07 432.863C272.025 433.046 272.447 432.885 272.636 432.885C274.386 432.885 276.136 432.885 277.886 432.885C285.336 432.885 292.785 432.885 300.235 432.885C304.202 432.885 308.17 432.885 312.137 432.885C315.901 432.885 319.676 432.977 323.431 432.667C325.552 432.493 327.757 431.866 329.888 431.907C330.486 431.918 331.03 432.017 331.595 432.211C333.068 432.717 334.609 432.689 336.149 432.689C338.251 432.689 340.352 432.689 342.454 432.689C343.055 432.689 344.86 432.689 344.258 432.689C343.465 432.689 342.678 432.634 341.889 432.559C336.487 432.042 331.105 431.907 325.681 431.907C318.68 431.907 311.733 432.298 304.735 432.298C304.261 432.298 303.678 432.214 303.213 432.33C301.49 432.761 306.402 434.012 308.148 434.341C313.547 435.36 319.36 436.349 324.844 435.276C327.605 434.736 329.856 432.331 332.616 432.091C332.873 432.069 333.624 431.898 333.366 431.907C330.39 432.009 327.477 433.195 324.583 433.776C317.692 435.159 310.727 435.336 303.757 434.613C298.032 434.02 292.37 432.955 286.647 432.341C283.597 432.015 280.646 431.894 277.625 431.276C274.62 430.661 271.668 430.669 268.668 430.254C267.401 430.079 266.256 429.559 264.951 429.559C263.48 429.559 262.008 429.559 260.537 429.559C255.399 429.559 250.39 430.537 245.254 430.537C242.396 430.537 239.686 431.32 236.841 431.32C234.094 431.32 231.348 431.32 228.601 431.32C227.443 431.32 226.281 431.341 225.123 431.32C224.2 431.302 223.355 430.969 222.449 430.928C220.968 430.862 219.06 431.03 217.623 430.689C217.26 430.603 219.05 429.884 219.155 429.83C220.294 429.252 221.216 428.488 222.242 427.754C222.81 427.349 223.804 427.688 224.406 427.798C229.315 428.69 234.15 429.637 239.134 430.037C243.175 430.361 247.176 430.341 251.233 430.341C253.426 430.341 255.609 430.388 257.798 430.537C260.442 430.717 263.077 431.454 265.712 431.515C271.869 431.658 278.064 431.581 284.223 431.504C287.263 431.466 290.205 430.928 293.234 430.928C294.874 430.928 296.48 430.965 298.104 430.733" stroke="#D9D9D9" stroke-width="2" stroke-linecap="round"/>
</svg>
