<svg width="750" height="750" viewBox="0 0 750 750" fill="none" xmlns="http://www.w3.org/2000/svg">
<rect width="750" height="750" rx="375" fill="#4B5013"/>
<path d="M196 149H280.828L314.424 178.852H375.315" stroke="#FBBF24" stroke-width="13" stroke-miterlimit="2.61313" stroke-linecap="round" stroke-linejoin="round"/>
<path d="M554.939 149H470.111L436.516 178.852H375.624" stroke="#FBBF24" stroke-width="13" stroke-miterlimit="2.61313" stroke-linecap="round" stroke-linejoin="round"/>
<path d="M375.641 335.752V646.178" stroke="#FBBF24" stroke-width="30" stroke-linecap="round"/>
<path fill-rule="evenodd" clip-rule="evenodd" d="M426.973 196.079H322.76L322.548 196.947C313.687 233.307 314.111 255.733 316.403 268.868C317.547 275.423 319.162 279.701 320.355 282.279C320.917 283.494 321.397 284.358 321.753 284.998L321.753 284.998L321.821 285.12L321.85 285.174C321.949 285.351 322.11 285.64 322.254 285.943H427.479C427.623 285.64 427.784 285.351 427.883 285.174L427.912 285.12L427.98 284.998C428.336 284.358 428.816 283.494 429.378 282.279C430.571 279.701 432.186 275.423 433.33 268.868C435.622 255.733 436.046 233.307 427.185 196.947L426.973 196.079ZM436.496 285.943C436.543 285.843 436.591 285.741 436.639 285.638C438.115 282.447 439.944 277.503 441.211 270.243C443.717 255.882 443.999 232.609 435.206 196.079L484.048 196.079C516.825 196.079 519.654 285.943 484.048 285.943H436.496ZM262.884 196.079H314.527C305.734 232.609 306.016 255.882 308.522 270.243C309.789 277.503 311.618 282.447 313.094 285.638C313.142 285.741 313.19 285.843 313.237 285.943H262.884C230.949 285.943 239.379 196.079 262.884 196.079Z" fill="#FBBF24"/>
<path fill-rule="evenodd" clip-rule="evenodd" d="M369.141 178.852C369.141 175.262 372.052 172.352 375.641 172.352C379.231 172.352 382.141 175.262 382.141 178.852V191H369.141V178.852ZM369.141 285.863V196H382.141V285.863H369.141ZM369.141 290.863V295.248L332.641 311.259C330.278 312.295 328.752 314.631 328.752 317.211V491.585C328.752 495.175 331.662 498.085 335.252 498.085C338.841 498.085 341.752 495.175 341.752 491.585V321.458L378.253 305.447C380.615 304.41 382.141 302.074 382.141 299.494V290.863H369.141Z" fill="#FBBF24"/>
<path fill-rule="evenodd" clip-rule="evenodd" d="M382.141 178.852C382.141 175.262 379.231 172.352 375.641 172.352C372.052 172.352 369.141 175.262 369.141 178.852V191H382.141V178.852ZM382.141 196V285.863H369.141V196H382.141ZM369.141 290.863H382.141V295.248L418.642 311.259C421.005 312.295 422.531 314.631 422.531 317.211V491.585C422.531 495.175 419.621 498.085 416.031 498.085C412.442 498.085 409.531 495.175 409.531 491.585V321.458L373.03 305.447C370.668 304.41 369.141 302.074 369.141 299.494V290.863Z" fill="#FBBF24"/>
<path fill-rule="evenodd" clip-rule="evenodd" d="M320.086 363.249V443.829C320.086 468.088 240 467.048 240 443.829V363.164C240.088 363.152 240.183 363.14 240.285 363.127C240.998 363.037 242.037 362.907 243.332 362.75C245.923 362.438 249.538 362.02 253.632 361.601C261.86 360.758 271.873 359.923 279.393 359.892C287.284 359.859 297.452 360.693 305.741 361.551C309.865 361.978 313.487 362.408 316.077 362.73C317.372 362.891 318.408 363.026 319.118 363.119C319.473 363.166 319.747 363.203 319.931 363.228L320.086 363.249ZM320.086 355.178V318.638C320.086 302.351 240 303.91 240 318.638V355.1C240.646 355.019 241.445 354.92 242.374 354.808C245.001 354.491 248.665 354.068 252.817 353.643C261.08 352.796 271.423 351.925 279.359 351.892C287.702 351.858 298.223 352.73 306.565 353.594C310.756 354.028 314.434 354.464 317.066 354.791C318.335 354.949 319.362 355.082 320.086 355.178Z" fill="#FBBF24"/>
<path fill-rule="evenodd" clip-rule="evenodd" d="M510.086 363.249V443.829C510.086 468.088 430 467.048 430 443.829V363.164C430.088 363.152 430.183 363.14 430.285 363.127C430.998 363.037 432.037 362.907 433.332 362.75C435.923 362.438 439.538 362.02 443.632 361.601C451.86 360.758 461.873 359.923 469.393 359.892C477.284 359.859 487.452 360.693 495.741 361.551C499.865 361.978 503.487 362.408 506.077 362.73C507.372 362.891 508.408 363.026 509.118 363.119C509.473 363.166 509.747 363.203 509.931 363.228L510.086 363.249ZM510.086 355.178V318.638C510.086 302.351 430 303.91 430 318.638V355.1C430.646 355.019 431.445 354.92 432.374 354.808C435.001 354.491 438.665 354.068 442.817 353.643C451.08 352.796 461.423 351.925 469.359 351.892C477.702 351.858 488.223 352.73 496.565 353.594C500.756 354.028 504.434 354.464 507.066 354.791C508.335 354.949 509.362 355.082 510.086 355.178Z" fill="#FBBF24"/>
</svg>
