<svg width="175" height="375" viewBox="0 0 175 375" fill="none" xmlns="http://www.w3.org/2000/svg">
<path d="M16.5292 280.5C16.1292 282.1 17.0292 283.5 17.5292 284C20.8625 286.5 28.1292 291.3 30.5292 290.5C33.5292 289.5 35.0292 286.5 34.5292 284.5C34.0292 282.5 31.5292 280 28.5292 279.5C25.5292 279 21.5292 277 20.0292 277C18.5292 277 17.0292 278.5 16.5292 280.5Z" fill="white" stroke="black" stroke-width="2" stroke-linecap="round" stroke-linejoin="round"/>
<path d="M12.0292 287.5C10.8292 286.7 11.1959 285.833 11.5292 285.5C11.8626 284.667 12.6292 282.8 13.0292 282C13.5292 281 13.5292 281.5 15.0292 281.5C16.5292 281.5 33.5292 290 34.5292 290.5C35.5292 291 36.0292 292 36.0292 293C36.0292 294 34.5292 297 32.5292 297C30.5292 297 13.5292 288.5 12.0292 287.5Z" fill="#D9D9D9" stroke="black" stroke-width="2" stroke-linecap="round" stroke-linejoin="round"/>
<path d="M120.029 226.5C120.696 229.667 122.229 236.8 123.029 240C124.029 244 123.029 248.5 121.529 251.5C120.029 254.5 109.029 271 86.5292 292" stroke="black" stroke-width="2" stroke-linecap="round" stroke-linejoin="round"/>
<path d="M79.5292 294L81.5292 296.5L89.5292 301.5C91.6959 301.333 96.0292 300.3 96.0292 297.5C96.0292 294 93.0292 294 90.0292 293.5C87.0292 293 84.5292 291 81.5292 291C79.1292 291 79.1959 293 79.5292 294Z" fill="white" stroke="black" stroke-width="2" stroke-linecap="round" stroke-linejoin="round"/>
<path d="M74.5292 298.5L77.0292 293.5C81.8626 295 92.5292 298.9 96.5292 302.5L97.5292 303.5C96.8626 305.167 95.3292 308.4 94.5292 308C93.5292 307.5 77.0292 301 75.5292 300C74.3292 299.2 74.3626 298.667 74.5292 298.5Z" fill="#D9D9D9" stroke="black" stroke-width="2" stroke-linecap="round" stroke-linejoin="round"/>
<path d="M71.0292 203.5C74.2292 201.5 77.6959 202 79.0292 202.5L100.029 209.5C101.696 211.167 104.429 216.2 102.029 223C99.0292 231.5 92.5292 249 90.0292 256C87.5292 263 82.5292 276 81.0292 279.5C79.5292 283 78.0292 288 77.0292 288.5C76.0292 289 74.5292 288.5 74.5292 287C74.5292 285.5 76.0292 282.5 78.0292 276.5C80.0292 270.5 84.5292 257 87.5292 247.5C90.5292 238 95.0292 221.5 95.5292 220.5C96.0292 219.5 96.5292 216 92.5292 214.5C88.5292 213 87.5292 212.5 82.5292 211C77.5292 209.5 75.5292 211.5 73.5292 213.5C71.5292 215.5 61.5292 245.5 59.5292 251C57.5292 256.5 50.5292 278 50.0292 279C49.5292 280 47.0292 280 46.0292 278.5C45.0292 277 45.5292 275 46.0292 273.5C46.5292 272 50.0292 262 51.0292 258.5C52.0292 255 56.5292 243 59.5292 232.5C62.5292 222 67.0292 208 67.5292 207C68.0292 206 67.0292 206 71.0292 203.5Z" fill="#D9D9D9" stroke="black" stroke-width="2" stroke-linecap="round" stroke-linejoin="round"/>
<path d="M66.5292 58.5L52.0292 59C50.3626 58.6667 46.1292 57.8 42.5292 57C38.0292 56 26.0292 54 24.0292 54C22.0292 54 21.0292 53 17.0292 54C13.0292 55 16.0292 57 17.0292 57C18.0292 57 37.5292 56 42.5292 58.5C46.5292 60.5 49.5292 60.6667 50.5292 60.5C48.0292 61 42.1292 61.7 38.5292 60.5C34.0292 59 18.5292 61.5 12.5292 64C6.52923 66.5 0.529227 62.5 1.02923 62C1.52923 61.5 10.0292 64 19.0292 63.5C28.0292 63 38.5292 64 47.0292 66C55.5292 68 67.5292 66 69.5292 64" stroke="black" stroke-width="2" stroke-linecap="round" stroke-linejoin="round"/>
<path d="M73.0292 64C77.0292 68 101.529 119.9 101.529 153.5" stroke="black" stroke-width="2" stroke-linecap="round" stroke-linejoin="round"/>
<path d="M69.5292 65.5C61.6959 69.1667 44.5292 78 38.5292 84C31.0292 91.5 33.5292 96 34.0292 99.5C34.5292 103 43.5292 117.5 42.5292 125.5" stroke="black" stroke-width="2" stroke-linecap="round" stroke-linejoin="round"/>
<path d="M79.0292 63.5C94.5292 73.3333 123.529 93 127.029 96C130.029 98 134.029 100.5 136.029 110C138.029 119.5 148.529 154.5 149.529 157.5M83.5292 161.5L97.0292 163L94.5292 158C91.6959 156.5 85.1292 153.2 81.5292 152C77.0292 150.5 74.5292 149.5 71.5292 148.5C68.5292 147.5 66.0292 141 64.5292 139.5C63.0292 138 59.5292 134.5 50.5292 132.5C43.3292 130.9 38.8626 128.167 37.5292 127C36.6959 126.667 34.8292 126.4 34.0292 128C33.0292 130 33.0292 130 33.5292 130.5C34.0292 131 34.0292 130.5 35.0292 131.5C35.8292 132.3 44.0292 134.833 48.0292 136C50.0292 136.5 54.4292 137.9 56.0292 139.5C58.0292 141.5 61.0292 150 64.5292 153.5C67.3292 156.3 78.3626 160 83.5292 161.5ZM105.529 166.5L107.529 162.5H110.029C114.529 164.5 123.829 168.5 125.029 168.5C126.229 168.5 130.863 169.833 133.029 170.5C135.696 170.333 142.029 169.5 146.029 167.5C151.029 165 152.529 166.5 154.529 167.5C156.129 168.3 166.196 171.833 171.029 173.5C171.863 174 173.529 175.2 173.529 176C173.529 177 173.529 178.5 171.029 180C169.029 181.2 167.529 179.5 167.029 178.5L156.029 174C155.029 173.5 152.729 172.5 151.529 172.5C150.029 172.5 143.029 177 136.529 177.5C131.329 177.9 113.696 170.333 105.529 166.5Z" stroke="black" stroke-width="2" stroke-linecap="round" stroke-linejoin="round"/>
<path d="M56.5292 153C58.1292 153 65.5292 154 69.0292 154.5C72.0293 154.918 78.5292 157 85.5292 158C91.1292 158.8 114.863 167.667 126.029 172C127.029 172 129.429 172.2 131.029 173C133.029 174 140.029 178 141.529 179C143.029 180 144.029 180 144.529 184C148.029 204 130.029 223 129.029 224C128.029 225 126.029 224.5 125.529 223.5C125.129 222.7 121.029 220.833 119.029 220C117.529 219.5 113.929 218.2 111.529 217C108.529 215.5 100.529 212.5 96.0292 211C91.5292 209.5 85.5292 205 80.0292 204C75.6292 203.2 66.1959 201 62.0292 200C61.1959 199.833 59.0292 199.2 57.0292 198C54.5292 196.5 49.0292 196 46.0292 195.5C43.0292 195 42.5292 197 41.5292 194C36.5292 173.5 50.0292 157 52.0292 154.5C54.0292 152 54.5292 153 56.5292 153Z" fill="#108D33" stroke="black" stroke-width="2" stroke-linecap="round" stroke-linejoin="round"/>
<path d="M124.029 164.5L121.529 167.5C122.532 167.877 124.586 168.567 124.783 168.315C126.625 173.429 124.78 175.948 122.529 189C120.621 200.066 114.922 212.011 111.941 217.284L108.029 215.5C107.529 218 113.529 222 115.029 222C116.529 222 119.029 220.5 120.529 217.5C122.029 214.5 128.029 201 130.029 195.5C132.029 190 134.529 173.5 132.529 169C130.929 165.4 126.196 164.5 124.029 164.5Z" fill="#EC6317"/>
<path d="M111.529 218C111.66 217.777 111.797 217.538 111.941 217.284M124.029 166.5C124.329 167.149 124.578 167.748 124.783 168.315M124.783 168.315C126.625 173.429 124.78 175.948 122.529 189C120.621 200.066 114.922 212.011 111.941 217.284M124.783 168.315C124.586 168.567 122.532 167.877 121.529 167.5L124.029 164.5C126.196 164.5 130.929 165.4 132.529 169C134.529 173.5 132.029 190 130.029 195.5C128.029 201 122.029 214.5 120.529 217.5C119.029 220.5 116.529 222 115.029 222C113.529 222 107.529 218 108.029 215.5L111.941 217.284" stroke="black" stroke-width="2" stroke-linecap="round" stroke-linejoin="round"/>
<path d="M74.5292 148C75.5292 147.5 79.5292 146.5 82.5292 149.5C83.8967 150.868 84.3552 152.084 84.404 153L80.0292 151.5C77.5292 153.5 74.5292 158 73.0292 160.5C71.5292 163 67.0292 171 63.5292 179.5C60.7292 186.3 61.3626 196 62.0292 200L65.0292 201C63.5292 203.5 58.5292 203 57.0292 201.5C55.5292 200 55.0292 195 55.0292 190.5C55.0292 186 57.5292 173.5 60.5292 168C63.5292 162.5 73.5292 148.5 74.5292 148Z" fill="#EC6317"/>
<path d="M62.0292 200L65.0292 201C63.5292 203.5 58.5292 203 57.0292 201.5C55.5292 200 55.0292 195 55.0292 190.5C55.0292 186 57.5292 173.5 60.5292 168C63.5292 162.5 73.5292 148.5 74.5292 148C75.5292 147.5 79.5292 146.5 82.5292 149.5C83.8967 150.868 84.3552 152.084 84.404 153L80.0292 151.5M62.0292 200C61.3626 196 60.7292 186.3 63.5292 179.5C67.0292 171 71.5292 163 73.0292 160.5C74.5292 158 77.5292 153.5 80.0292 151.5M62.0292 200L62.5292 201M80.0292 151.5L81.0292 150.5" stroke="black" stroke-width="2" stroke-linecap="round" stroke-linejoin="round"/>
<path d="M96.0292 157C94.0292 158.2 94.1959 160.167 94.5292 161L107.029 166C108.196 165.667 110.329 164.4 109.529 162C108.529 159 98.5292 155.5 96.0292 157Z" stroke="black" stroke-width="2" stroke-linecap="round" stroke-linejoin="round"/>
<path d="M50.0292 126C53.0292 126 56.5292 129 58.0292 131C58.3626 131.833 58.8292 134.2 58.0292 135C55.6372 133.405 51.9121 132.506 49.8369 132.005L49.8162 132C47.7238 134.529 45.8869 139.428 43.0292 140.5C39.0292 142 36.5292 141.5 34.0292 139C31.5292 136.5 37.0292 128 38.0292 127C38.8292 126.2 39.6959 126 40.0292 126H50.0292Z" fill="white"/>
<path d="M52.5292 130.5C51.5297 130.357 50.6525 130.989 49.8162 132M49.8162 132C47.7238 134.529 45.8869 139.428 43.0292 140.5C39.0292 142 36.5292 141.5 34.0292 139C31.5292 136.5 37.0292 128 38.0292 127C38.8292 126.2 39.6959 126 40.0292 126C42.3626 126 47.6292 126 50.0292 126C53.0292 126 56.5292 129 58.0292 131C58.3626 131.833 58.8292 134.2 58.0292 135C55.6292 133.4 51.8872 132.5 49.8162 132Z" stroke="black" stroke-width="2" stroke-linecap="round" stroke-linejoin="round"/>
<path d="M41.0292 24.5C41.0292 26.1 45.0292 29.1667 47.0292 30.5C55.6959 27.3333 73.4292 20.8 75.0292 20C77.0292 19 79.0292 16 78.0292 13C77.0292 10 75.5292 9 72.5292 6C69.5292 3 66.0292 1 65.5292 1C65.0292 1 64.5292 1 64.0292 1.5C48.0292 2 46.0292 8 45.0292 8C42.5292 8 42.0292 9.5 41.5292 12C41.0292 14.5 41.0292 22.5 41.0292 24.5Z" fill="#D9D9D9" stroke="black" stroke-width="2" stroke-linejoin="round"/>
<path d="M43.0292 10C44.1959 10.6667 46.8292 11.9 48.0292 11.5C49.5292 11 49.0292 7.5 49.0292 6M58.5292 2.5C59.3626 4 61.4292 7 63.0292 7C65.0292 7 63.5292 1.5 64.0292 1.5M60.5292 22C59.9523 21.8178 59.2668 21.5825 58.5292 21.3049M58.5292 21.3049C55.2185 20.0592 50.8564 17.9627 50.5292 16C50.0292 13 52.5292 15 53.5292 16C54.5292 17 56.5292 19.6099 58.5292 21.3049ZM65.0292 20.5C65.3668 20.0499 65.7702 19.4581 66.1835 18.7746M66.1835 18.7746C67.6071 16.4207 69.1492 12.9799 68.5292 10.5C67.5292 6.5 66.5292 10.5 66.5292 12.5C66.5292 14.1 66.2988 17.3497 66.1835 18.7746Z" stroke="black" stroke-opacity="0.5" stroke-width="2" stroke-linecap="round" stroke-linejoin="round"/>
<path d="M47.5292 32.5C46.3626 29.8333 46.2292 24.6 55.0292 25C63.0903 25.3664 70.6479 20.4464 74.1662 17.3116C74.7872 19.8744 76.5292 25.4 78.5292 27C81.0292 29 83.5292 32.5 83.0292 39C82.5292 45.5 82.5292 48 82.0292 52C81.5292 56 77.0292 59.5 72.5292 60C68.0292 60.5 61.5292 54 55.0292 48C48.5292 42 49.5292 38 49.5292 36C49.5292 34.4 48.1959 33 47.5292 32.5Z" fill="white"/>
<path d="M75.0292 16.5C74.7773 16.7519 74.4887 17.0243 74.1662 17.3116M74.1662 17.3116C70.6479 20.4464 63.0903 25.3664 55.0292 25C46.2292 24.6 46.3626 29.8333 47.5292 32.5C48.1959 33 49.5292 34.4 49.5292 36C49.5292 38 48.5292 42 55.0292 48C61.5292 54 68.0292 60.5 72.5292 60C77.0292 59.5 81.5292 56 82.0292 52C82.5292 48 82.5292 45.5 83.0292 39C83.5292 32.5 81.0292 29 78.5292 27C76.5292 25.4 74.7872 19.8744 74.1662 17.3116Z" stroke="black" stroke-width="2" stroke-linecap="round" stroke-linejoin="round"/>
<path d="M66.5292 28.5C67.5292 30 70.2292 33.7 73.0292 36.5C76.5292 40 69.0292 45 68.5292 44.5M65.0292 49.5C65.8626 49.1667 68.1292 48.5 70.5292 48.5" stroke="black" stroke-width="2" stroke-linecap="round" stroke-linejoin="round"/>
<path d="M148.029 161.5C146.829 163.1 148.196 165.167 149.029 166C149.696 165.833 151.329 165.7 152.529 166.5C153.729 167.3 154.544 167.5 154.801 167.5C154.946 168.114 155.029 168.786 155.029 169.5C155.029 173 158.529 177 161.529 178.5C164.529 180 165.529 180 167.529 178.5C169.529 177 172.529 174 170.529 169.5C168.529 165 166.029 166 164.029 164.5C162.029 163 158.529 159.5 154.529 159C150.529 158.5 149.529 159.5 148.029 161.5Z" fill="white"/>
<path d="M151.529 164C152.723 163.602 154.234 165.105 154.801 167.5M154.801 167.5C154.946 168.114 155.029 168.786 155.029 169.5C155.029 173 158.529 177 161.529 178.5C164.529 180 165.529 180 167.529 178.5C169.529 177 172.529 174 170.529 169.5C168.529 165 166.029 166 164.029 164.5C162.029 163 158.529 159.5 154.529 159C150.529 158.5 149.529 159.5 148.029 161.5C146.829 163.1 148.196 165.167 149.029 166C149.696 165.833 151.329 165.7 152.529 166.5C153.729 167.3 154.544 167.5 154.801 167.5Z" stroke="black" stroke-width="2" stroke-linecap="round" stroke-linejoin="round"/>
<path d="M30.0292 354.5C31.5833 349.061 33.0292 343.167 34.0292 341C36.1959 334.667 41.4292 319.5 45.0292 309.5C49.5292 297 50.5292 292.5 55.0292 279C59.5292 265.5 70.5292 235 72.5292 229C74.5292 223 75.0292 218.5 78.5292 216C82.0292 213.5 88.0292 217 88.5292 217.5C89.0292 218 89.0292 223.5 88.5292 224.5C88.0292 225.5 88.5292 226.5 84.5292 238C80.5292 249.5 68.5292 288 66.0292 295C63.5292 302 51.0292 341 48.5292 347C46.0292 353 41.0292 366 39.5292 366H33.5292C31.9292 366 30.5292 365 30.0292 364.5C27.5292 362.5 29.0292 358 30.0292 354.5Z" fill="black" stroke="black" stroke-width="2" stroke-linecap="round" stroke-linejoin="round"/>
<path d="M48.0292 203C43.3626 205.667 33.2292 211.6 30.0292 214C26.0292 217 24.5292 220.5 24.5292 226.5C24.5292 232.5 23.5292 252 27.5292 278.5" stroke="black" stroke-width="2" stroke-linecap="round" stroke-linejoin="round"/>
<path d="M164.062 366.754C156.939 366.754 149.815 366.754 142.692 366.754C139.024 366.754 135.347 366.834 131.68 366.743C130.281 366.709 128.977 366.438 127.604 366.211C123.133 365.47 118.619 365.007 114.104 364.646C103.589 363.804 93.023 363.232 82.4719 363.232C77.027 363.232 71.6775 364.015 66.2213 364.015C61.7325 364.015 57.2419 363.977 52.7534 364.015C51.1416 364.029 49.8217 364.307 48.2749 364.689C46.7058 365.077 45.1364 365.047 43.5573 365.298C41.9999 365.545 41.3679 366.461 42.0355 368.08C43.1437 370.769 46.3339 372.248 48.9489 372.928C51.3203 373.545 54.7728 373.901 57.1666 373.059C59.0848 372.384 60.7746 371.201 62.6451 370.417C63.7355 369.961 64.8789 369.723 65.9713 369.298C66.4473 369.113 67.7317 368.126 67.58 368.124C62.2477 368.041 56.7769 368.579 51.4707 368.026C50.1036 367.884 48.7947 367.788 47.7749 368.961C47.5266 369.246 53.0343 369.298 53.2969 369.298C58.884 369.298 64.4712 369.298 70.0584 369.298C73.3537 369.298 76.6445 369.301 79.9392 369.396C82.8717 369.48 85.7754 369.566 88.6896 369.928C93.8987 370.576 99.001 371.827 104.234 372.298C108.654 372.696 113.207 373.355 117.647 373.407C118.957 373.422 120.375 373.258 121.604 372.776C122.398 372.465 123.334 371.138 122.691 370.254C121.638 368.806 118.219 368.762 116.799 368.646C111.501 368.212 106.154 368.32 100.842 368.32C97.3128 368.32 93.9096 368.121 90.407 367.613C86.6889 367.074 83.0632 366.495 79.2979 366.57C75.4166 366.646 71.5757 366.95 67.6779 366.95C65.4484 366.95 63.2412 366.205 61.0363 366.363C59.6811 366.46 63.6567 367.086 64.9821 367.385C70.949 368.73 77.0646 369.609 83.1241 370.428C90.5629 371.434 97.8098 370.69 105.255 370.668C112.279 370.646 119.437 371.15 126.408 372.015C129.351 372.38 132.114 372.82 135.072 372.82C136.219 372.82 136.092 371.564 135.148 371.168C132.027 369.856 127.79 370.485 124.539 370.45C117.999 370.38 111.476 370.135 104.951 369.7C104.343 369.66 100.297 368.956 100.07 369.863C100.025 370.046 100.447 369.885 100.636 369.885C102.386 369.885 104.136 369.885 105.886 369.885C113.336 369.885 120.785 369.885 128.235 369.885C132.202 369.885 136.17 369.885 140.137 369.885C143.901 369.885 147.676 369.977 151.431 369.667C153.552 369.493 155.757 368.866 157.888 368.907C158.486 368.918 159.03 369.017 159.595 369.211C161.068 369.717 162.609 369.689 164.149 369.689C166.251 369.689 168.352 369.689 170.454 369.689C171.055 369.689 172.86 369.689 172.258 369.689C171.465 369.689 170.678 369.634 169.889 369.559C164.487 369.042 159.105 368.907 153.681 368.907C146.68 368.907 139.733 369.298 132.735 369.298C132.261 369.298 131.678 369.214 131.213 369.33C129.49 369.761 134.402 371.012 136.148 371.341C141.547 372.36 147.36 373.349 152.844 372.276C155.605 371.736 157.856 369.331 160.616 369.091C160.873 369.069 161.624 368.898 161.366 368.907C158.39 369.009 155.477 370.195 152.583 370.776C145.692 372.159 138.727 372.336 131.757 371.613C126.032 371.02 120.37 369.955 114.647 369.341C111.597 369.015 108.646 368.894 105.625 368.276C102.62 367.661 99.6678 367.669 96.6682 367.254C95.4007 367.079 94.2565 366.559 92.9506 366.559C91.4795 366.559 90.0085 366.559 88.5374 366.559C83.3992 366.559 78.3899 367.537 73.2542 367.537C70.3964 367.537 67.6856 368.32 64.8408 368.32C62.0943 368.32 59.3478 368.32 56.6013 368.32C55.4426 368.32 54.2815 368.341 53.1229 368.32C52.1996 368.302 51.3555 367.969 50.4489 367.928C48.9678 367.862 47.0603 368.03 45.6226 367.689C45.2596 367.603 47.0502 366.884 47.1553 366.83C48.2939 366.252 49.2155 365.488 50.2424 364.754C50.8097 364.349 51.8036 364.688 52.4055 364.798C57.315 365.69 62.1495 366.637 67.1344 367.037C71.1746 367.361 75.1759 367.341 79.2327 367.341C81.4259 367.341 83.6093 367.388 85.7982 367.537C88.4421 367.717 91.0775 368.454 93.7115 368.515C99.8694 368.658 106.064 368.581 112.223 368.504C115.263 368.466 118.205 367.928 121.234 367.928C122.874 367.928 124.48 367.965 126.104 367.733" stroke="#D9D9D9" stroke-width="2" stroke-linecap="round"/>
</svg>
